SplineFontDB: 3.0
FontName: Bodoni-24-Bold
FullName: Bodoni* 24 Bold
FamilyName: Bodoni* 24
Weight: Bold
Copyright: Copyright (c) 2017, Owen Earl,,, (EwonRael@yahoo.com)
Version: 001.0
ItalicAngle: 0
UnderlinePosition: -409.6
UnderlineWidth: 204.8
Ascent: 3277
Descent: 819
InvalidEm: 0
LayerCount: 2
Layer: 0 0 "Back" 1
Layer: 1 0 "Fore" 0
PreferredKerning: 4
XUID: [1021 31 -699969567 16487490]
FSType: 0
OS2Version: 0
OS2_WeightWidthSlopeOnly: 0
OS2_UseTypoMetrics: 1
CreationTime: 1460762150
ModificationTime: 1556908401
PfmFamily: 17
TTFWeight: 700
TTFWidth: 5
LineGap: 410
VLineGap: 0
OS2TypoAscent: 3277
OS2TypoAOffset: 0
OS2TypoDescent: -819
OS2TypoDOffset: 0
OS2TypoLinegap: 410
OS2WinAscent: 4096
OS2WinAOffset: 0
OS2WinDescent: 1638
OS2WinDOffset: 0
HheadAscent: 4096
HheadAOffset: 0
HheadDescent: -819
HheadDOffset: 0
OS2CapHeight: 700
OS2XHeight: 460
OS2FamilyClass: 768
OS2Vendor: 'PfEd'
OS2UnicodeRanges: 00000001.00000000.00000000.00000000
Lookup: 1 0 0 "'ss02' Style Set 2 lookup 4" { "'ss02' Style Set 2 lookup 4-1"  } ['ss02' ('DFLT' <'dflt' > 'grek' <'dflt' > 'latn' <'dflt' > ) ]
Lookup: 1 0 0 "'ss03' Style Set 3 lookup 5" { "'ss03' Style Set 3 lookup 5-1"  } ['ss03' ('DFLT' <'dflt' > 'grek' <'dflt' > 'latn' <'dflt' > ) ]
Lookup: 1 0 0 "'ss01' Style Set 1 lookup 2" { "'ss01' Style Set 1 lookup 2-1"  } ['ss01' ('DFLT' <'dflt' > 'grek' <'dflt' > 'latn' <'dflt' > ) ]
Lookup: 5 0 0 "'calt' Contextual Alternates lookup 3" { "'calt' Contextual Alternates lookup 3-1"  } ['calt' ('DFLT' <'dflt' > 'grek' <'dflt' > 'latn' <'dflt' > ) ]
Lookup: 4 0 1 "'liga' Standard Ligatures lookup 0" { "'liga' Standard Ligatures lookup 0-1"  } ['liga' ('DFLT' <'dflt' > 'grek' <'dflt' > 'latn' <'dflt' > ) ]
Lookup: 258 0 0 "'kern' Horizontal Kerning lookup 0" { "kerning like they all do" [150,0,6] } ['kern' ('DFLT' <'dflt' > 'grek' <'dflt' > 'latn' <'dflt' > ) ]
MarkAttachClasses: 1
DEI: 91125
KernClass2: 31 27 "kerning like they all do"

StartChar: ampersand
Encoding: 38 38 0
GlifName: ampersand
Width: 3526
Flags: HMW
LayerCount: 2
Fore
SplineSet
2392 1884 m 1
 3375 1884 l 1
 3375 1847 l 1
 2392 1847 l 1
 2392 1884 l 1
2970 1868 m 1
 2872 955 2261 -41 1163 -41 c 0
 516 -41 164 274 164 737 c 0
 164 1368 970 1531 1376 1769 c 0
 1695 1966 1909 2003 1909 2601 c 0
 1909 2834 1851 3084 1622 3084 c 0
 1401 3084 1315 2880 1315 2683 c 0
 1315 2519 1438 2269 1614 2007 c 2
 2908 37 l 1
 3416 37 l 1
 3416 0 l 1
 2212 0 l 1
 856 2007 l 2
 750 2163 668 2368 668 2511 c 0
 668 2880 1056 3113 1634 3113 c 0
 2175 3113 2519 2912 2519 2597 c 0
 2519 2110 1933 2085 1376 1741 c 0
 1069 1561 848 1474 848 950 c 0
 848 499 1135 106 1520 106 c 0
 2220 106 2851 975 2933 1868 c 1
 2970 1868 l 1
EndSplineSet
EndChar

StartChar: period
Encoding: 46 46 1
GlifName: period
Width: 1064
Flags: HMW
LayerCount: 2
Fore
SplineSet
164 328 m 0
 164 533 327 696 532 696 c 0
 737 696 901 533 901 328 c 0
 901 123 737 -41 532 -41 c 0
 327 -41 164 123 164 328 c 0
EndSplineSet
EndChar

StartChar: zero
Encoding: 48 48 2
GlifName: zero
Width: 2703
Flags: HMW
LayerCount: 2
Fore
SplineSet
1352 -41 m 0
 643 -41 164 643 164 1536 c 0
 164 2429 684 3113 1352 3113 c 0
 2020 3113 2540 2429 2540 1536 c 0
 2540 643 2061 -41 1352 -41 c 0
1352 3080 m 0
 967 3080 881 2384 881 1536 c 0
 881 688 926 -8 1352 -8 c 0
 1778 -8 1823 688 1823 1536 c 0
 1823 2384 1758 3080 1352 3080 c 0
EndSplineSet
EndChar

StartChar: one
Encoding: 49 49 3
GlifName: one
Width: 2027
VWidth: 4730
Flags: HMW
LayerCount: 2
Fore
SplineSet
205 37 m 1
 1823 37 l 1
 1823 0 l 1
 205 0 l 1
 205 37 l 1
274 3072 m 1
 1372 3072 l 1
 1372 20 l 1
 737 20 l 1
 737 3035 l 1
 274 3035 l 1
 274 3072 l 1
EndSplineSet
EndChar

StartChar: two
Encoding: 50 50 4
GlifName: two
Width: 2457
VWidth: 4730
Flags: HMW
LayerCount: 2
Fore
SplineSet
2314 0 m 1
 164 0 l 1
 164 410 l 1
 1032 1114 l 2
 1384 1401 1573 1725 1573 2171 c 0
 1573 2679 1360 2998 979 2998 c 0
 569 2998 254 2671 254 2253 c 1
 303 2392 430 2507 598 2507 c 0
 811 2507 975 2359 975 2154 c 0
 975 1929 778 1778 573 1778 c 0
 368 1778 205 1934 205 2249 c 0
 205 2728 586 3113 1229 3113 c 0
 1868 3113 2228 2765 2228 2335 c 0
 2228 1864 1790 1638 1487 1409 c 2
 528 614 l 1
 2277 614 l 1
 2277 922 l 1
 2314 922 l 1
 2314 0 l 1
EndSplineSet
EndChar

StartChar: three
Encoding: 51 51 5
GlifName: three
Width: 2338
VWidth: 4730
Flags: HMW
LayerCount: 2
Fore
SplineSet
2175 840 m 0
 2175 287 1667 -41 1049 -41 c 0
 406 -41 102 323 102 659 c 0
 102 888 254 1040 459 1040 c 0
 643 1040 786 905 786 696 c 0
 786 503 618 369 438 369 c 0
 315 369 238 426 197 492 c 1
 254 271 504 25 950 25 c 0
 1396 25 1516 394 1516 840 c 0
 1516 1205 1401 1642 811 1642 c 1
 811 1671 l 1
 1839 1671 2175 1311 2175 840 c 0
811 1651 m 1
 811 1679 l 1
 1360 1679 1393 2138 1393 2421 c 0
 1393 2745 1274 3047 991 3047 c 0
 708 3047 447 2887 365 2703 c 1
 414 2777 500 2802 582 2802 c 0
 742 2802 897 2679 897 2482 c 0
 897 2269 725 2142 561 2142 c 0
 377 2142 225 2257 225 2478 c 0
 225 2834 651 3109 1069 3109 c 0
 1606 3109 2052 2851 2052 2400 c 0
 2052 1990 1798 1651 811 1651 c 1
EndSplineSet
EndChar

StartChar: four
Encoding: 52 52 6
GlifName: four
Width: 2621
VWidth: 4730
Flags: HMW
LayerCount: 2
Fore
SplineSet
2437 37 m 1
 2437 0 l 1
 1106 0 l 1
 1106 37 l 1
 1495 37 l 1
 1495 2769 l 1
 213 901 l 1
 2580 901 l 1
 2580 860 l 1
 143 860 l 1
 1659 3072 l 1
 2130 3072 l 1
 2130 37 l 1
 2437 37 l 1
EndSplineSet
Substitution2: "'ss03' Style Set 3 lookup 5-1" four.alt
EndChar

StartChar: five
Encoding: 53 53 7
GlifName: five
Width: 2191
VWidth: 4730
Flags: HMW
LayerCount: 2
Fore
SplineSet
1925 2458 m 1
 270 2458 l 1
 270 1462 l 1
 233 1462 l 1
 233 3072 l 1
 1888 3072 l 1
 1888 3297 l 1
 1925 3297 l 1
 1925 2458 l 1
164 365 m 1
 217 189 492 8 795 8 c 0
 1241 8 1393 442 1393 909 c 0
 1393 1458 1237 1798 893 1798 c 0
 598 1798 369 1626 287 1462 c 1
 254 1462 l 1
 340 1655 598 1864 1032 1864 c 0
 1650 1864 2068 1523 2068 909 c 0
 2068 356 1565 -41 885 -41 c 0
 447 -41 41 192 41 569 c 0
 41 798 200 946 397 946 c 0
 581 946 754 831 754 606 c 0
 754 401 578 246 385 246 c 0
 283 246 205 299 164 365 c 1
EndSplineSet
EndChar

StartChar: six
Encoding: 54 54 8
GlifName: six
Width: 2498
VWidth: 4730
Flags: HMW
LayerCount: 2
Fore
SplineSet
1700 1024 m 0
 1700 1675 1552 1937 1290 1937 c 0
 1003 1937 881 1679 881 1147 c 1
 852 1147 l 1
 852 1671 934 2015 1417 2015 c 0
 1872 2015 2376 1720 2376 1024 c 0
 2376 410 1966 -41 1307 -41 c 0
 648 -41 205 410 205 1270 c 0
 205 2265 991 3113 2068 3113 c 1
 2068 3080 l 1
 1335 3080 881 2244 881 1417 c 1
 881 1147 l 1
 881 496 995 -4 1319 -4 c 0
 1643 -4 1700 455 1700 1024 c 0
EndSplineSet
EndChar

StartChar: seven
Encoding: 55 55 9
GlifName: seven
Width: 2211
VWidth: 4730
Flags: HMW
LayerCount: 2
Fore
SplineSet
606 373 m 0
 606 697 983 1086 1262 1528 c 0
 1401 1766 1572 2081 1765 2437 c 1
 201 2437 l 1
 201 2130 l 1
 164 2130 l 1
 164 3072 l 1
 2171 3072 l 1
 2171 3072 1650 2089 1331 1548 c 0
 1126 1200 1065 1110 1065 963 c 0
 1065 705 1384 643 1384 340 c 0
 1384 127 1241 -41 999 -41 c 0
 778 -41 606 82 606 373 c 0
EndSplineSet
EndChar

StartChar: eight
Encoding: 56 56 10
GlifName: eight
Width: 2457
VWidth: 4730
Flags: HMW
LayerCount: 2
Fore
SplineSet
901 2294 m 0
 901 1848 987 1606 1229 1606 c 0
 1471 1606 1556 1848 1556 2294 c 0
 1556 2720 1471 3056 1229 3056 c 0
 987 3056 901 2720 901 2294 c 0
246 2294 m 0
 246 2745 590 3113 1229 3113 c 0
 1868 3113 2212 2745 2212 2294 c 0
 2212 1843 1868 1565 1229 1565 c 0
 590 1565 246 1843 246 2294 c 0
819 778 m 0
 819 352 926 16 1229 16 c 0
 1532 16 1638 352 1638 778 c 0
 1638 1204 1532 1548 1229 1548 c 0
 926 1548 819 1204 819 778 c 0
164 778 m 0
 164 1270 508 1593 1229 1593 c 0
 1950 1593 2294 1270 2294 778 c 0
 2294 286 1950 -41 1229 -41 c 0
 508 -41 164 286 164 778 c 0
EndSplineSet
EndChar

StartChar: A
Encoding: 65 65 12
GlifName: A_
Width: 3203
Flags: HMW
LayerCount: 2
Fore
SplineSet
74 37 m 1
 975 37 l 1
 975 0 l 1
 74 0 l 1
 74 37 l 1
1753 37 m 1
 3146 37 l 1
 3146 0 l 1
 1753 0 l 1
 1753 37 l 1
799 1024 m 1
 2122 1024 l 1
 2122 983 l 1
 799 983 l 1
 799 1024 l 1
1327 2441 m 1
 475 0 l 1
 434 0 l 1
 1536 3133 l 1
 1769 3133 l 1
 2859 0 l 1
 2122 0 l 1
 1327 2441 l 1
EndSplineSet
EndChar

StartChar: B
Encoding: 66 66 13
GlifName: B_
Width: 2854
Flags: HMW
LayerCount: 2
Fore
SplineSet
1466 1565 m 2
 975 1565 l 1
 975 1597 l 1
 1384 1597 l 2
 1675 1597 1917 1786 1917 2273 c 0
 1917 2760 1675 3035 1384 3035 c 2
 74 3035 l 1
 74 3072 l 1
 1466 3072 l 2
 2146 3072 2572 2846 2572 2314 c 0
 2572 1802 2187 1565 1466 1565 c 2
442 3072 m 1
 1073 3072 l 1
 1073 0 l 1
 442 0 l 1
 442 3072 l 1
1548 0 m 2
 74 0 l 1
 74 37 l 1
 1425 37 l 2
 1757 37 1999 373 1999 860 c 0
 1999 1347 1757 1556 1425 1556 c 2
 975 1556 l 1
 975 1589 l 1
 1548 1589 l 2
 2187 1589 2695 1392 2695 819 c 0
 2695 225 2269 0 1548 0 c 2
EndSplineSet
EndChar

StartChar: C
Encoding: 67 67 14
GlifName: C_
Width: 2875
Flags: HMW
LayerCount: 2
Fore
SplineSet
2646 3072 m 1
 2671 3072 l 1
 2671 2171 l 1
 2622 2339 2388 2736 2273 2851 c 1
 2646 3072 l 1
2671 2171 m 1
 2634 2171 l 1
 2478 2687 2139 3056 1688 3056 c 0
 1078 3056 893 2281 893 1536 c 0
 893 791 1078 16 1688 16 c 0
 2237 16 2532 418 2675 901 c 1
 2712 901 l 1
 2589 356 2233 -41 1647 -41 c 0
 734 -41 172 623 172 1536 c 0
 172 2449 734 3113 1647 3113 c 0
 2171 3113 2528 2716 2671 2171 c 1
2712 901 m 1
 2712 0 l 1
 2687 0 l 1
 2335 242 l 1
 2450 357 2671 737 2712 901 c 1
EndSplineSet
EndChar

StartChar: D
Encoding: 68 68 15
GlifName: D_
Width: 3100
Flags: HMW
LayerCount: 2
Fore
SplineSet
442 3072 m 1
 1073 3072 l 1
 1073 0 l 1
 442 0 l 1
 442 3072 l 1
1384 0 m 2
 74 0 l 1
 74 37 l 1
 1384 37 l 2
 2015 37 2220 729 2220 1536 c 0
 2220 2343 1974 3035 1384 3035 c 2
 74 3035 l 1
 74 3072 l 1
 1384 3072 l 2
 2359 3072 2941 2449 2941 1536 c 0
 2941 623 2318 0 1384 0 c 2
EndSplineSet
EndChar

StartChar: E
Encoding: 69 69 16
GlifName: E_
Width: 2568
Flags: HMW
LayerCount: 2
Fore
SplineSet
2408 922 m 1
 2449 922 l 1
 2449 0 l 1
 74 0 l 1
 74 37 l 1
 1507 37 l 2
 2068 37 2347 402 2408 922 c 1
442 3072 m 1
 1073 3072 l 1
 1073 0 l 1
 442 0 l 1
 442 3072 l 1
74 3072 m 1
 2408 3072 l 1
 2408 2232 l 1
 2367 2232 l 1
 2306 2670 2027 3035 1548 3035 c 2
 74 3035 l 1
 74 3072 l 1
1737 1077 m 1
 1676 1351 1454 1569 1221 1569 c 2
 934 1569 l 1
 934 1610 l 1
 1221 1610 l 2
 1454 1610 1676 1807 1737 2081 c 1
 1769 2081 l 1
 1769 1077 l 1
 1737 1077 l 1
EndSplineSet
EndChar

StartChar: F
Encoding: 70 70 17
GlifName: F_
Width: 2465
Flags: HMW
LayerCount: 2
Fore
SplineSet
74 3072 m 1
 2343 3072 l 1
 2343 2232 l 1
 2310 2232 l 1
 2249 2670 2007 3035 1548 3035 c 2
 74 3035 l 1
 74 3072 l 1
74 37 m 1
 1483 37 l 1
 1483 0 l 1
 74 0 l 1
 74 37 l 1
442 3072 m 1
 1073 3072 l 1
 1073 0 l 1
 442 0 l 1
 442 3072 l 1
1737 1016 m 1
 1676 1290 1495 1507 1180 1507 c 2
 909 1507 l 1
 909 1548 l 1
 1180 1548 l 2
 1495 1548 1676 1745 1737 2019 c 1
 1769 2019 l 1
 1769 1016 l 1
 1737 1016 l 1
EndSplineSet
EndChar

StartChar: G
Encoding: 71 71 18
GlifName: G_
Width: 3100
Flags: HMW
LayerCount: 2
Fore
SplineSet
2753 2171 m 1
 2675 2441 2449 2748 2310 2867 c 1
 2728 3072 l 1
 2753 3072 l 1
 2753 2171 l 1
1753 1188 m 1
 3064 1188 l 1
 3064 1147 l 1
 1753 1147 l 1
 1753 1188 l 1
2179 1159 m 1
 2859 1159 l 1
 2859 635 l 1
 2593 356 2298 -41 1630 -41 c 0
 717 -41 172 582 172 1536 c 0
 172 2490 857 3113 1688 3113 c 0
 2212 3113 2687 2675 2753 2171 c 1
 2720 2171 l 1
 2630 2605 2228 3056 1745 3056 c 0
 1135 3056 893 2281 893 1536 c 0
 893 791 1040 4 1630 4 c 0
 1974 4 2118 340 2179 512 c 1
 2179 1159 l 1
EndSplineSet
EndChar

StartChar: H
Encoding: 72 72 19
GlifName: H_
Width: 3244
Flags: HMW
LayerCount: 2
Fore
SplineSet
991 1536 m 1
 2261 1536 l 1
 2261 1495 l 1
 991 1495 l 1
 991 1536 l 1
1810 37 m 1
 3187 37 l 1
 3187 0 l 1
 1810 0 l 1
 1810 37 l 1
74 37 m 1
 1442 37 l 1
 1442 0 l 1
 74 0 l 1
 74 37 l 1
1810 3072 m 1
 3187 3072 l 1
 3187 3035 l 1
 1810 3035 l 1
 1810 3072 l 1
74 3072 m 1
 1442 3072 l 1
 1442 3035 l 1
 74 3035 l 1
 74 3072 l 1
2179 3072 m 1
 2818 3072 l 1
 2818 0 l 1
 2179 0 l 1
 2179 3072 l 1
442 3072 m 1
 1073 3072 l 1
 1073 0 l 1
 442 0 l 1
 442 3072 l 1
EndSplineSet
EndChar

StartChar: I
Encoding: 73 73 20
GlifName: I_
Width: 1708
Flags: HMW
LayerCount: 2
Fore
SplineSet
74 37 m 1
 1647 37 l 1
 1647 0 l 1
 74 0 l 1
 74 37 l 1
74 3072 m 1
 1647 3072 l 1
 1647 3035 l 1
 74 3035 l 1
 74 3072 l 1
524 3072 m 1
 1155 3072 l 1
 1155 0 l 1
 524 0 l 1
 524 3072 l 1
EndSplineSet
EndChar

StartChar: J
Encoding: 74 74 21
GlifName: J_
Width: 2183
Flags: HMW
LayerCount: 2
Fore
SplineSet
549 3072 m 1
 2122 3072 l 1
 2122 3035 l 1
 549 3035 l 1
 549 3072 l 1
1081 3072 m 1
 1712 3072 l 1
 1712 696 l 1
 1548 307 1327 -123 729 -123 c 0
 311 -123 49 123 49 430 c 0
 49 663 221 819 426 819 c 0
 610 819 778 684 778 455 c 0
 778 250 623 90 426 90 c 0
 328 90 238 123 205 156 c 1
 287 33 467 -82 717 -82 c 0
 1020 -82 1081 205 1081 778 c 2
 1081 3072 l 1
EndSplineSet
Substitution2: "'ss02' Style Set 2 lookup 4-1" J.alt
EndChar

StartChar: K
Encoding: 75 75 22
GlifName: K_
Width: 3141
Flags: HMW
LayerCount: 2
Fore
SplineSet
74 37 m 1
 1442 37 l 1
 1442 0 l 1
 74 0 l 1
 74 37 l 1
74 3072 m 1
 1483 3072 l 1
 1483 3035 l 1
 74 3035 l 1
 74 3072 l 1
442 3072 m 1
 1073 3072 l 1
 1073 0 l 1
 442 0 l 1
 442 3072 l 1
647 889 m 1
 590 889 l 1
 2449 3064 l 1
 2507 3064 l 1
 647 889 l 1
1647 37 m 1
 3121 37 l 1
 3121 0 l 1
 1647 0 l 1
 1647 37 l 1
2941 3035 m 1
 1958 3035 l 1
 1958 3072 l 1
 2941 3072 l 1
 2941 3035 l 1
2802 0 m 1
 2064 0 l 1
 1184 1556 l 1
 1606 2028 l 1
 2802 0 l 1
EndSplineSet
EndChar

StartChar: L
Encoding: 76 76 23
GlifName: L_
Width: 2519
Flags: HMW
LayerCount: 2
Fore
SplineSet
442 3072 m 1
 1073 3072 l 1
 1073 0 l 1
 442 0 l 1
 442 3072 l 1
74 3072 m 1
 238 3072 1278 3072 1442 3072 c 1
 1442 3035 l 1
 74 3035 l 1
 74 3072 l 1
2437 0 m 1
 74 0 l 1
 74 37 l 1
 1495 37 l 2
 2097 37 2339 402 2400 922 c 1
 2437 922 l 1
 2437 0 l 1
EndSplineSet
EndChar

StartChar: M
Encoding: 77 77 24
GlifName: M_
Width: 3612
Flags: HMW
LayerCount: 2
Fore
SplineSet
3555 3072 m 1
 3555 3035 l 1
 3269 3035 l 1
 3269 0 l 1
 2630 0 l 1
 2630 3072 l 1
 3555 3072 l 1
90 37 m 1
 729 37 l 1
 729 0 l 1
 90 0 l 1
 90 37 l 1
2302 37 m 1
 3555 37 l 1
 3555 0 l 1
 2302 0 l 1
 2302 37 l 1
1843 877 m 1
 2613 3072 l 1
 2654 3072 l 1
 1573 -41 l 1
 1532 -41 l 1
 393 3072 l 1
 1032 3072 l 1
 1843 877 l 1
385 3035 m 1
 74 3035 l 1
 74 3072 l 1
 426 3072 l 1
 426 0 l 1
 385 0 l 1
 385 3035 l 1
EndSplineSet
EndChar

StartChar: N
Encoding: 78 78 25
GlifName: N_
Width: 3076
Flags: HMW
LayerCount: 2
Fore
SplineSet
2548 3072 m 1
 2589 3072 l 1
 2589 -41 l 1
 2523 -41 l 1
 483 3072 l 1
 1237 3072 l 1
 2548 1049 l 1
 2548 3072 l 1
2081 3072 m 1
 3015 3072 l 1
 3015 3035 l 1
 2081 3035 l 1
 2081 3072 l 1
74 37 m 1
 999 37 l 1
 999 0 l 1
 74 0 l 1
 74 37 l 1
483 3035 m 1
 74 3035 l 1
 74 3072 l 1
 524 3072 l 1
 524 0 l 1
 483 0 l 1
 483 3035 l 1
EndSplineSet
EndChar

StartChar: O
Encoding: 79 79 26
GlifName: O_
Width: 3121
Flags: HMW
LayerCount: 2
Fore
SplineSet
1565 -41 m 0
 693 -41 172 643 172 1536 c 0
 172 2429 734 3113 1565 3113 c 0
 2396 3113 2957 2429 2957 1536 c 0
 2957 643 2437 -41 1565 -41 c 0
1565 3080 m 0
 1037 3080 893 2384 893 1536 c 0
 893 688 996 -8 1565 -8 c 0
 2134 -8 2245 688 2245 1536 c 0
 2245 2384 2093 3080 1565 3080 c 0
EndSplineSet
EndChar

StartChar: P
Encoding: 80 80 27
GlifName: P_
Width: 2752
Flags: HMW
LayerCount: 2
Fore
SplineSet
442 3072 m 1
 1073 3072 l 1
 1073 0 l 1
 442 0 l 1
 442 3072 l 1
74 37 m 1
 1442 37 l 1
 1442 0 l 1
 74 0 l 1
 74 37 l 1
1483 1372 m 2
 893 1372 l 1
 893 1413 l 1
 1401 1413 l 2
 1753 1413 1917 1847 1917 2212 c 0
 1917 2577 1753 3035 1401 3035 c 2
 74 3035 l 1
 74 3072 l 1
 1483 3072 l 2
 2265 3072 2613 2744 2613 2212 c 0
 2613 1680 2265 1372 1483 1372 c 2
EndSplineSet
EndChar

StartChar: Q
Encoding: 81 81 28
GlifName: Q_
Width: 3121
Flags: HMW
LayerCount: 2
Fore
SplineSet
1565 -41 m 0
 693 -41 172 643 172 1536 c 0
 172 2429 734 3113 1565 3113 c 0
 2396 3113 2957 2429 2957 1536 c 0
 2957 643 2437 -41 1565 -41 c 0
1565 3080 m 0
 1037 3080 893 2384 893 1536 c 0
 893 688 996 -8 1565 -8 c 0
 2134 -8 2245 688 2245 1536 c 0
 2245 2384 2093 3080 1565 3080 c 0
2384 -987 m 1
 2384 -1024 l 1
 1368 -1024 1196 -795 1196 16 c 1
 1409 -37 1712 -37 1917 16 c 1
 1917 -729 1946 -987 2384 -987 c 1
EndSplineSet
EndChar

StartChar: R
Encoding: 82 82 29
GlifName: R_
Width: 3039
Flags: HMW
LayerCount: 2
Fore
SplineSet
1507 1569 m 2
 811 1569 l 1
 811 1597 l 1
 1401 1597 l 2
 1794 1597 1999 1827 1999 2314 c 0
 1999 2801 1794 3035 1401 3035 c 2
 74 3035 l 1
 74 3072 l 1
 1507 3072 l 2
 2187 3072 2654 2846 2654 2314 c 0
 2654 1782 2228 1569 1507 1569 c 2
74 37 m 1
 1524 37 l 1
 1524 0 l 1
 74 0 l 1
 74 37 l 1
483 3072 m 1
 1114 3072 l 1
 1114 0 l 1
 483 0 l 1
 483 3072 l 1
2998 49 m 1
 2932 12 2745 -33 2507 -33 c 0
 1389 -33 2409 1556 1401 1556 c 2
 811 1556 l 1
 811 1577 l 1
 1729 1577 l 2
 3072 1577 2265 33 2769 33 c 0
 2855 33 2933 61 2990 86 c 1
 2998 49 l 1
EndSplineSet
Substitution2: "'ss01' Style Set 1 lookup 2-1" R.alt
EndChar

StartChar: S
Encoding: 83 83 30
GlifName: S_
Width: 2445
Flags: HMW
LayerCount: 2
Fore
SplineSet
2122 2191 m 1
 2081 2191 l 1
 1917 2732 1606 3064 1155 3064 c 0
 823 3064 647 2868 647 2585 c 0
 647 1889 2286 2061 2286 881 c 0
 2286 308 1840 -61 1262 -61 c 0
 623 -61 332 430 172 922 c 1
 213 922 l 1
 365 463 655 -16 1233 -16 c 0
 1626 -16 1868 226 1868 582 c 0
 1868 1360 213 1106 213 2294 c 0
 213 2806 647 3113 1122 3113 c 0
 1626 3113 1958 2769 2122 2191 c 1
2089 3113 m 1
 2122 3113 l 1
 2122 2191 l 1
 2061 2363 1852 2756 1737 2871 c 1
 2089 3113 l 1
205 -41 m 1
 172 -41 l 1
 172 922 l 1
 254 717 475 323 573 221 c 1
 205 -41 l 1
EndSplineSet
EndChar

StartChar: T
Encoding: 84 84 31
GlifName: T_
Width: 2772
Flags: HMW
LayerCount: 2
Fore
SplineSet
623 37 m 1
 2163 37 l 1
 2163 0 l 1
 623 0 l 1
 623 37 l 1
1073 3056 m 1
 1712 3056 l 1
 1712 0 l 1
 1073 0 l 1
 1073 3056 l 1
1974 3035 m 2
 811 3035 l 2
 373 3035 167 2609 106 2089 c 1
 74 2089 l 1
 74 3072 l 1
 2712 3072 l 1
 2712 2089 l 1
 2679 2089 l 1
 2618 2609 2412 3035 1974 3035 c 2
EndSplineSet
EndChar

StartChar: U
Encoding: 85 85 32
GlifName: U_
Width: 2957
Flags: HMW
LayerCount: 2
Fore
SplineSet
2097 3072 m 1
 2900 3072 l 1
 2900 3035 l 1
 2097 3035 l 1
 2097 3072 l 1
74 3072 m 1
 1483 3072 l 1
 1483 3035 l 1
 74 3035 l 1
 74 3072 l 1
2466 3072 m 1
 2507 3072 l 1
 2507 942 l 2
 2507 266 2216 -61 1548 -61 c 0
 778 -61 442 233 442 942 c 2
 442 3072 l 1
 1073 3072 l 1
 1073 983 l 2
 1073 442 1176 8 1704 8 c 0
 2159 8 2466 291 2466 942 c 2
 2466 3072 l 1
EndSplineSet
EndChar

StartChar: V
Encoding: 86 86 33
GlifName: V_
Width: 3162
Flags: HMW
LayerCount: 2
Fore
SplineSet
3121 3035 m 1
 2220 3035 l 1
 2220 3072 l 1
 3121 3072 l 1
 3121 3035 l 1
1524 3035 m 1
 49 3035 l 1
 49 3072 l 1
 1524 3072 l 1
 1524 3035 l 1
1868 631 m 1
 2728 3072 l 1
 2777 3072 l 1
 1659 -61 l 1
 1425 -61 l 1
 336 3072 l 1
 1073 3072 l 1
 1868 631 l 1
EndSplineSet
EndChar

StartChar: W
Encoding: 87 87 34
GlifName: W_
Width: 4513
Flags: HMW
LayerCount: 2
Fore
SplineSet
2458 1946 m 1
 1712 -41 l 1
 1507 -41 l 1
 377 3072 l 1
 1098 3072 l 1
 1942 705 l 1
 2441 2028 l 1
 2458 1946 l 1
2695 1909 m 1
 2671 1966 l 1
 3084 3072 l 1
 3129 3072 l 1
 2695 1909 l 1
4473 3035 m 1
 3654 3035 l 1
 3654 3072 l 1
 4473 3072 l 1
 4473 3035 l 1
2347 3072 m 1
 3195 705 l 1
 4071 3072 l 1
 4112 3072 l 1
 2966 -41 l 1
 2818 -41 l 1
 1688 3072 l 1
 2347 3072 l 1
3473 3035 m 1
 49 3035 l 1
 49 3072 l 1
 3473 3072 l 1
 3473 3035 l 1
EndSplineSet
EndChar

StartChar: X
Encoding: 88 88 35
GlifName: X_
Width: 3244
Flags: HMW
LayerCount: 2
Fore
SplineSet
1651 1544 m 1
 1597 1544 l 1
 2564 3064 l 1
 2605 3064 l 1
 1651 1544 l 1
516 0 m 1
 467 0 l 1
 1597 1708 l 1
 1647 1708 l 1
 516 0 l 1
1810 37 m 1
 3203 37 l 1
 3203 0 l 1
 1810 0 l 1
 1810 37 l 1
49 37 m 1
 1032 37 l 1
 1032 0 l 1
 49 0 l 1
 49 37 l 1
1589 3035 m 1
 197 3035 l 1
 197 3072 l 1
 1589 3072 l 1
 1589 3035 l 1
2982 3035 m 1
 2081 3035 l 1
 2081 3072 l 1
 2982 3072 l 1
 2982 3035 l 1
2941 0 m 1
 2204 0 l 1
 442 3072 l 1
 1163 3072 l 1
 2941 0 l 1
EndSplineSet
EndChar

StartChar: Y
Encoding: 89 89 36
GlifName: Y_
Width: 3018
Flags: HMW
LayerCount: 2
Fore
SplineSet
2982 3035 m 1
 2122 3035 l 1
 2122 3072 l 1
 2982 3072 l 1
 2982 3035 l 1
1483 3035 m 1
 49 3035 l 1
 49 3072 l 1
 1483 3072 l 1
 1483 3035 l 1
868 37 m 1
 2286 37 l 1
 2286 0 l 1
 868 0 l 1
 868 37 l 1
1851 1622 m 1
 2605 3064 l 1
 2654 3064 l 1
 1876 1569 l 1
 1876 0 l 1
 1237 0 l 1
 1237 1475 l 1
 311 3072 l 1
 1049 3072 l 1
 1851 1622 l 1
EndSplineSet
EndChar

StartChar: Z
Encoding: 90 90 37
GlifName: Z_
Width: 2527
Flags: HMW
LayerCount: 2
Fore
SplineSet
131 3072 m 1
 2343 3072 l 1
 2343 3035 l 1
 770 37 l 1
 1524 37 l 2
 2085 37 2269 320 2351 840 c 1
 2384 840 l 1
 2384 0 l 1
 49 0 l 1
 49 37 l 1
 1630 3035 l 1
 991 3035 l 2
 430 3035 254 2752 172 2314 c 1
 131 2314 l 1
 131 3072 l 1
EndSplineSet
EndChar

StartChar: a
Encoding: 97 97 38
GlifName: a
Width: 2371
VWidth: 4730
Flags: HMW
LayerCount: 2
Fore
SplineSet
2367 258 m 1
 2273 53 2061 -41 1823 -41 c 0
 1569 -41 1343 45 1343 319 c 2
 1343 1249 l 2
 1343 1564 1265 1868 958 1868 c 0
 761 1868 594 1799 524 1733 c 1
 749 1807 954 1680 954 1487 c 0
 954 1303 774 1192 610 1192 c 0
 426 1192 295 1311 295 1479 c 0
 295 1741 651 1917 1065 1917 c 0
 1741 1917 1917 1622 1917 1249 c 2
 1917 213 l 2
 1917 123 1966 61 2064 61 c 0
 2134 61 2257 110 2339 270 c 1
 2367 258 l 1
1049 1049 m 2
 1556 1049 l 1
 1556 1008 l 1
 1192 1008 l 2
 942 1008 774 786 774 520 c 0
 774 291 852 147 1004 147 c 0
 1168 147 1343 290 1343 741 c 1
 1372 741 l 1
 1372 233 1160 -41 705 -41 c 0
 381 -41 152 160 152 463 c 0
 152 807 455 1049 1049 1049 c 2
EndSplineSet
EndChar

StartChar: b
Encoding: 98 98 39
GlifName: b
Width: 2551
VWidth: 4730
Flags: HMW
LayerCount: 2
Fore
SplineSet
889 942 m 0
 889 1565 1122 1921 1556 1921 c 0
 2002 1921 2425 1556 2425 942 c 0
 2425 328 2002 -41 1556 -41 c 0
 1122 -41 889 319 889 942 c 0
918 942 m 0
 918 344 1175 41 1421 41 c 0
 1663 41 1769 352 1769 942 c 0
 1769 1532 1663 1843 1421 1843 c 0
 1175 1843 918 1540 918 942 c 0
344 3035 m 1
 70 3035 l 1
 70 3072 l 1
 918 3072 l 1
 918 0 l 1
 70 0 l 1
 70 37 l 1
 344 37 l 1
 344 3035 l 1
EndSplineSet
EndChar

StartChar: c
Encoding: 99 99 40
GlifName: c
Width: 2105
VWidth: 4730
Flags: HMW
LayerCount: 2
Fore
SplineSet
1794 1585 m 1
 1733 1741 1495 1880 1241 1880 c 0
 856 1880 807 1327 807 942 c 0
 807 475 901 25 1253 25 c 0
 1581 25 1799 254 1905 586 c 1
 1946 586 l 1
 1840 230 1602 -41 1147 -41 c 0
 549 -41 131 287 131 942 c 0
 131 1515 491 1925 1171 1925 c 0
 1609 1925 1942 1683 1942 1368 c 0
 1942 1159 1802 1040 1618 1040 c 0
 1454 1040 1282 1122 1282 1360 c 0
 1282 1565 1450 1671 1589 1671 c 0
 1695 1671 1761 1626 1794 1585 c 1
EndSplineSet
EndChar

StartChar: d
Encoding: 100 100 41
GlifName: d
Width: 2551
VWidth: 4730
Flags: HMW
LayerCount: 2
Fore
SplineSet
1667 942 m 0
 1667 319 1433 -41 999 -41 c 0
 553 -41 131 328 131 942 c 0
 131 1556 553 1921 999 1921 c 0
 1433 1921 1667 1565 1667 942 c 0
1638 942 m 0
 1638 1556 1377 1843 1135 1843 c 0
 893 1843 786 1540 786 942 c 0
 786 344 901 49 1143 49 c 0
 1385 49 1638 328 1638 942 c 0
2486 37 m 1
 2486 0 l 1
 1638 0 l 1
 1638 3035 l 1
 1364 3035 l 1
 1364 3072 l 1
 2212 3072 l 1
 2212 37 l 1
 2486 37 l 1
EndSplineSet
EndChar

StartChar: e
Encoding: 101 101 42
GlifName: e
Width: 2142
VWidth: 4730
Flags: HMW
LayerCount: 2
Fore
SplineSet
406 1049 m 1
 406 1090 l 1
 1417 1090 l 1
 1417 1434 1384 1888 1122 1888 c 0
 839 1888 766 1450 766 983 c 0
 766 455 856 16 1241 16 c 0
 1614 16 1889 258 1991 586 c 1
 2028 586 l 1
 1922 230 1635 -41 1139 -41 c 0
 561 -41 131 307 131 942 c 0
 131 1577 544 1925 1122 1925 c 0
 1732 1925 2023 1495 2023 1049 c 1
 406 1049 l 1
EndSplineSet
EndChar

StartChar: f
Encoding: 102 102 43
GlifName: f
Width: 1589
VWidth: 4730
Flags: HMW
LayerCount: 2
Fore
SplineSet
49 37 m 1
 1438 37 l 1
 1438 0 l 1
 49 0 l 1
 49 37 l 1
49 1884 m 1
 1520 1884 l 1
 1520 1847 l 1
 49 1847 l 1
 49 1884 l 1
1860 2822 m 1
 1815 2924 1684 3076 1405 3076 c 0
 1077 3076 958 2732 958 2212 c 2
 958 0 l 1
 406 0 l 1
 406 2097 l 2
 406 2675 803 3113 1397 3113 c 0
 1749 3113 1962 2879 1962 2646 c 0
 1962 2437 1831 2310 1647 2310 c 0
 1483 2310 1315 2408 1315 2613 c 0
 1315 2810 1462 2933 1634 2933 c 0
 1736 2933 1819 2888 1860 2822 c 1
EndSplineSet
EndChar

StartChar: g
Encoding: 103 103 44
GlifName: g
Width: 2527
VWidth: 4730
Flags: HMW
LayerCount: 2
Fore
SplineSet
201 279 m 0
 201 598 679 696 1044 696 c 1
 1040 680 l 1
 864 680 561 618 561 471 c 0
 561 348 754 344 979 344 c 0
 1122 344 1216 348 1331 348 c 0
 1638 348 2015 221 2015 -336 c 0
 2015 -832 1606 -1065 1053 -1065 c 0
 570 -1065 70 -922 70 -545 c 0
 70 -185 512 -106 696 -106 c 2
 725 -106 l 1
 582 -184 561 -352 561 -442 c 0
 561 -761 738 -1020 1090 -1020 c 0
 1459 -1020 1860 -877 1860 -508 c 0
 1860 -262 1605 -139 1339 -139 c 0
 1233 -139 1003 -139 913 -139 c 0
 544 -139 201 -36 201 279 c 0
766 1290 m 0
 766 946 787 700 1008 700 c 0
 1168 700 1249 946 1249 1290 c 0
 1249 1634 1168 1888 1008 1888 c 0
 848 1888 766 1634 766 1290 c 0
172 1290 m 0
 172 1741 615 1925 1008 1925 c 0
 1401 1925 1843 1741 1843 1290 c 0
 1843 839 1401 664 1008 664 c 0
 615 664 172 839 172 1290 c 0
2408 1663 m 1
 2379 1769 2273 1868 2089 1868 c 0
 1892 1868 1655 1757 1573 1401 c 1
 1544 1421 l 1
 1626 1794 1884 1905 2089 1905 c 0
 2359 1905 2482 1721 2482 1565 c 0
 2482 1340 2343 1266 2220 1266 c 0
 2097 1266 1966 1348 1966 1524 c 0
 1966 1659 2065 1765 2212 1765 c 0
 2302 1765 2388 1716 2408 1663 c 1
EndSplineSet
EndChar

StartChar: h
Encoding: 104 104 45
GlifName: h
Width: 2506
VWidth: 4730
Flags: HMW
LayerCount: 2
Fore
SplineSet
1593 1286 m 2
 1593 1630 1548 1786 1376 1786 c 0
 1024 1786 918 1302 918 913 c 1
 889 909 l 1
 889 1319 971 1925 1585 1925 c 0
 2044 1925 2167 1663 2167 1307 c 2
 2167 0 l 1
 1593 0 l 1
 1593 1286 l 2
1380 37 m 1
 2441 37 l 1
 2441 0 l 1
 1380 0 l 1
 1380 37 l 1
70 37 m 1
 1130 37 l 1
 1130 0 l 1
 70 0 l 1
 70 37 l 1
344 3035 m 1
 70 3035 l 1
 70 3072 l 1
 918 3072 l 1
 918 0 l 1
 344 0 l 1
 344 3035 l 1
EndSplineSet
EndChar

StartChar: i
Encoding: 105 105 46
GlifName: i
Width: 1269
VWidth: 4730
Flags: HMW
LayerCount: 2
Fore
SplineSet
90 37 m 1
 1212 37 l 1
 1212 0 l 1
 90 0 l 1
 90 37 l 1
262 2765 m 0
 262 2962 413 3113 610 3113 c 0
 807 3113 958 2962 958 2765 c 0
 958 2568 807 2417 610 2417 c 0
 413 2417 262 2568 262 2765 c 0
365 1847 m 1
 90 1847 l 1
 90 1884 l 1
 938 1884 l 1
 938 0 l 1
 365 0 l 1
 365 1847 l 1
EndSplineSet
EndChar

StartChar: j
Encoding: 106 106 47
GlifName: j
Width: 1298
VWidth: 4730
Flags: HMW
LayerCount: 2
Fore
SplineSet
332 2765 m 0
 332 2962 483 3113 680 3113 c 0
 877 3113 1028 2962 1028 2765 c 0
 1028 2568 877 2417 680 2417 c 0
 483 2417 332 2568 332 2765 c 0
999 1884 m 1
 999 -49 l 2
 999 -586 684 -1065 111 -1065 c 0
 -262 -1065 -516 -852 -516 -582 c 0
 -516 -377 -360 -242 -180 -242 c 0
 -16 -242 152 -340 152 -545 c 0
 152 -742 8 -856 -205 -856 c 0
 -320 -856 -394 -783 -406 -709 c 1
 -390 -856 -196 -1020 66 -1020 c 0
 496 -1020 418 -434 418 86 c 2
 426 1847 l 1
 70 1847 l 1
 70 1884 l 1
 999 1884 l 1
EndSplineSet
EndChar

StartChar: k
Encoding: 107 107 48
GlifName: k
Width: 2584
VWidth: 4730
Flags: HMW
LayerCount: 2
Fore
SplineSet
2404 0 m 1
 1696 0 l 1
 885 1090 l 1
 1999 1884 l 1
 2056 1884 l 1
 1352 1360 l 1
 2404 0 l 1
1417 37 m 1
 2560 37 l 1
 2560 0 l 1
 1417 0 l 1
 1417 37 l 1
2359 1847 m 1
 1470 1847 l 1
 1470 1884 l 1
 2359 1884 l 1
 2359 1847 l 1
70 37 m 1
 1225 37 l 1
 1225 0 l 1
 70 0 l 1
 70 37 l 1
426 3035 m 1
 70 3035 l 1
 70 3072 l 1
 999 3072 l 1
 999 0 l 1
 426 0 l 1
 426 3035 l 1
EndSplineSet
EndChar

StartChar: l
Encoding: 108 108 49
GlifName: l
Width: 1421
VWidth: 4730
Flags: HMW
LayerCount: 2
Fore
SplineSet
70 37 m 1
 1356 37 l 1
 1356 0 l 1
 70 0 l 1
 70 37 l 1
426 3035 m 1
 70 3035 l 1
 70 3072 l 1
 999 3072 l 1
 999 0 l 1
 426 0 l 1
 426 3035 l 1
EndSplineSet
EndChar

StartChar: m
Encoding: 109 109 50
GlifName: m
Width: 3592
VWidth: 4730
Flags: HMW
LayerCount: 2
Fore
SplineSet
2085 1307 m 2
 2085 0 l 1
 1511 0 l 1
 1511 1286 l 2
 1511 1630 1483 1794 1327 1794 c 0
 1032 1794 918 1323 918 913 c 1
 889 909 l 1
 889 1319 958 1925 1540 1925 c 0
 1950 1925 2085 1663 2085 1307 c 2
70 37 m 1
 1122 37 l 1
 1122 0 l 1
 70 0 l 1
 70 37 l 1
1311 37 m 1
 2286 37 l 1
 2286 0 l 1
 1311 0 l 1
 1311 37 l 1
2474 37 m 1
 3527 37 l 1
 3527 0 l 1
 2474 0 l 1
 2474 37 l 1
344 1847 m 1
 70 1847 l 1
 70 1884 l 1
 918 1884 l 1
 918 0 l 1
 344 0 l 1
 344 1847 l 1
3252 1307 m 2
 3252 0 l 1
 2679 0 l 1
 2679 1286 l 2
 2679 1630 2638 1794 2482 1794 c 0
 2179 1794 2085 1323 2085 913 c 1
 2056 909 l 1
 2056 1319 2105 1925 2695 1925 c 0
 3105 1925 3252 1663 3252 1307 c 2
EndSplineSet
EndChar

StartChar: n
Encoding: 110 110 51
GlifName: n
Width: 2506
VWidth: 4730
Flags: HMW
LayerCount: 2
Fore
SplineSet
1593 1286 m 2
 1593 1630 1548 1786 1376 1786 c 0
 1032 1786 918 1302 918 913 c 1
 889 909 l 1
 889 1319 979 1925 1585 1925 c 0
 2036 1925 2167 1663 2167 1307 c 2
 2167 0 l 1
 1593 0 l 1
 1593 1286 l 2
1380 37 m 1
 2441 37 l 1
 2441 0 l 1
 1380 0 l 1
 1380 37 l 1
70 37 m 1
 1130 37 l 1
 1130 0 l 1
 70 0 l 1
 70 37 l 1
344 1847 m 1
 70 1847 l 1
 70 1884 l 1
 918 1884 l 1
 918 0 l 1
 344 0 l 1
 344 1847 l 1
EndSplineSet
EndChar

StartChar: o
Encoding: 111 111 52
GlifName: o
Width: 2256
VWidth: 4730
Flags: HMW
LayerCount: 2
Fore
SplineSet
745 942 m 0
 745 455 827 -4 1130 -4 c 0
 1433 -4 1516 455 1516 942 c 0
 1516 1429 1433 1888 1130 1888 c 0
 827 1888 745 1429 745 942 c 0
131 942 m 0
 131 1474 512 1925 1130 1925 c 0
 1748 1925 2130 1474 2130 942 c 0
 2130 410 1748 -41 1130 -41 c 0
 512 -41 131 410 131 942 c 0
EndSplineSet
EndChar

StartChar: p
Encoding: 112 112 53
GlifName: p
Width: 2551
VWidth: 4730
Flags: HMW
LayerCount: 2
Fore
SplineSet
889 942 m 0
 889 1565 1122 1921 1556 1921 c 0
 2002 1921 2425 1556 2425 942 c 0
 2425 328 2002 -41 1556 -41 c 0
 1122 -41 889 319 889 942 c 0
918 942 m 0
 918 328 1179 41 1417 41 c 0
 1667 41 1769 369 1769 942 c 0
 1769 1515 1671 1843 1421 1843 c 0
 1179 1843 918 1556 918 942 c 0
70 -987 m 1
 1192 -987 l 1
 1192 -1024 l 1
 70 -1024 l 1
 70 -987 l 1
344 1847 m 1
 70 1847 l 1
 70 1884 l 1
 918 1884 l 1
 918 -1024 l 1
 344 -1024 l 1
 344 1847 l 1
EndSplineSet
EndChar

StartChar: q
Encoding: 113 113 54
GlifName: q
Width: 2551
VWidth: 4730
Flags: HMW
LayerCount: 2
Fore
SplineSet
1667 942 m 0
 1667 319 1433 -41 999 -41 c 0
 553 -41 131 328 131 942 c 0
 131 1556 553 1921 999 1921 c 0
 1433 1921 1667 1565 1667 942 c 0
1638 942 m 0
 1638 1556 1377 1843 1135 1843 c 0
 893 1843 786 1515 786 942 c 0
 786 369 893 49 1135 49 c 0
 1393 49 1638 328 1638 942 c 0
2486 -987 m 1
 2486 -1024 l 1
 1364 -1024 l 1
 1364 -987 l 1
 2486 -987 l 1
2486 1884 m 1
 2486 1847 l 1
 2212 1847 l 1
 2212 -1024 l 1
 1638 -1024 l 1
 1638 1884 l 1
 2486 1884 l 1
EndSplineSet
EndChar

StartChar: r
Encoding: 114 114 55
GlifName: r
Width: 1933
VWidth: 4730
Flags: HMW
LayerCount: 2
Fore
SplineSet
1778 1679 m 1
 1729 1810 1577 1884 1442 1884 c 0
 983 1884 918 1351 918 913 c 1
 889 913 l 1
 889 1413 954 1925 1450 1925 c 0
 1679 1925 1909 1753 1909 1491 c 0
 1909 1303 1786 1139 1569 1139 c 0
 1372 1139 1225 1261 1225 1466 c 0
 1225 1753 1590 1884 1778 1679 c 1
70 37 m 1
 1192 37 l 1
 1192 0 l 1
 70 0 l 1
 70 37 l 1
344 1847 m 1
 70 1847 l 1
 70 1884 l 1
 918 1884 l 1
 918 0 l 1
 344 0 l 1
 344 1847 l 1
EndSplineSet
EndChar

StartChar: s
Encoding: 115 115 56
GlifName: s
Width: 1814
VWidth: 4730
Flags: HMW
LayerCount: 2
Fore
SplineSet
1483 1516 m 1
 1450 1569 1331 1700 1290 1737 c 1
 1540 1925 l 1
 1565 1925 l 1
 1565 1352 l 1
 1532 1352 l 1
 1532 1377 1491 1496 1483 1516 c 1
1556 1352 m 1
 1532 1352 l 1
 1442 1598 1205 1880 836 1880 c 0
 639 1880 467 1782 467 1610 c 0
 467 1200 1708 1372 1708 602 c 0
 1708 176 1344 -41 967 -41 c 0
 561 -41 266 213 164 594 c 1
 197 594 l 1
 312 242 590 0 942 0 c 0
 1192 0 1401 102 1401 311 c 0
 1401 745 201 528 201 1331 c 0
 201 1655 447 1921 836 1921 c 0
 1237 1921 1474 1622 1556 1352 c 1
188 -41 m 1
 156 -41 l 1
 156 594 l 1
 197 594 l 1
 201 545 234 430 242 410 c 1
 283 344 401 201 434 168 c 1
 188 -41 l 1
EndSplineSet
EndChar

StartChar: t
Encoding: 116 116 57
GlifName: t
Width: 1470
VWidth: 4730
Flags: HMW
LayerCount: 2
Fore
SplineSet
29 1884 m 1
 1339 1884 l 1
 1339 1847 l 1
 29 1847 l 1
 29 1884 l 1
1462 418 m 1
 1364 156 1135 -29 803 -29 c 0
 406 -29 328 188 328 475 c 2
 328 2294 l 1
 512 2294 758 2335 901 2417 c 1
 901 369 l 2
 901 164 946 90 1057 90 c 0
 1184 90 1348 221 1430 430 c 1
 1462 418 l 1
EndSplineSet
EndChar

StartChar: u
Encoding: 117 117 58
GlifName: u
Width: 2506
VWidth: 4730
Flags: HMW
LayerCount: 2
Fore
SplineSet
918 1884 m 1
 918 598 l 2
 918 254 958 98 1130 98 c 0
 1474 98 1593 582 1593 971 c 1
 1622 975 l 1
 1622 565 1532 -41 926 -41 c 0
 475 -41 344 222 344 578 c 2
 344 1847 l 1
 70 1847 l 1
 70 1884 l 1
 918 1884 l 1
2167 37 m 1
 2441 37 l 1
 2441 0 l 1
 1593 0 l 1
 1593 1847 l 1
 1327 1847 l 1
 1327 1884 l 1
 2167 1884 l 1
 2167 37 l 1
EndSplineSet
EndChar

StartChar: v
Encoding: 118 118 59
GlifName: v
Width: 2322
VWidth: 4730
Flags: HMW
LayerCount: 2
Fore
SplineSet
2318 1847 m 1
 1548 1847 l 1
 1548 1884 l 1
 2318 1884 l 1
 2318 1847 l 1
1204 1847 m 1
 -8 1847 l 1
 -8 1884 l 1
 1204 1884 l 1
 1204 1847 l 1
1389 492 m 1
 1950 1884 l 1
 1999 1884 l 1
 1221 -41 l 1
 1040 -41 l 1
 246 1884 l 1
 885 1884 l 1
 1389 492 l 1
EndSplineSet
EndChar

StartChar: w
Encoding: 119 119 60
GlifName: w
Width: 3350
VWidth: 4730
Flags: HMW
LayerCount: 2
Fore
SplineSet
1221 1847 m 1
 -8 1847 l 1
 -8 1884 l 1
 1221 1884 l 1
 1221 1847 l 1
3351 1847 m 1
 2499 1847 l 1
 2499 1884 l 1
 3351 1884 l 1
 3351 1847 l 1
1245 528 m 1
 1810 1925 l 1
 2114 1925 l 1
 2511 614 l 1
 2933 1884 l 1
 2982 1884 l 1
 2335 -41 l 1
 2146 -41 l 1
 1634 1368 l 1
 1065 -41 l 1
 877 -41 l 1
 246 1884 l 1
 860 1884 l 1
 1245 528 l 1
EndSplineSet
EndChar

StartChar: x
Encoding: 120 120 61
GlifName: x
Width: 2330
VWidth: 4730
Flags: HMW
LayerCount: 2
Fore
SplineSet
1163 37 m 1
 2302 37 l 1
 2302 0 l 1
 1163 0 l 1
 1163 37 l 1
33 37 m 1
 795 37 l 1
 795 0 l 1
 33 0 l 1
 33 37 l 1
1221 1847 m 1
 57 1847 l 1
 57 1884 l 1
 1221 1884 l 1
 1221 1847 l 1
2249 1847 m 1
 1532 1847 l 1
 1532 1884 l 1
 2249 1884 l 1
 2249 1847 l 1
2130 0 m 1
 1450 0 l 1
 270 1884 l 1
 926 1884 l 1
 2130 0 l 1
344 0 m 1
 287 0 l 1
 1901 1884 l 1
 1954 1884 l 1
 344 0 l 1
EndSplineSet
EndChar

StartChar: y
Encoding: 121 121 62
GlifName: y
Width: 2408
VWidth: 4730
Flags: HMW
LayerCount: 2
Fore
SplineSet
1311 1847 m 1
 -25 1847 l 1
 -25 1884 l 1
 1311 1884 l 1
 1311 1847 l 1
2458 1847 m 1
 1720 1847 l 1
 1720 1884 l 1
 2458 1884 l 1
 2458 1847 l 1
1565 561 m 1
 1241 -98 l 1
 221 1884 l 1
 901 1884 l 1
 1565 561 l 1
922 -758 m 1
 2142 1884 l 1
 2195 1884 l 1
 954 -786 l 2
 876 -950 774 -1057 598 -1057 c 0
 434 -1057 279 -947 279 -750 c 0
 279 -574 413 -426 606 -426 c 0
 782 -426 926 -574 922 -758 c 1
EndSplineSet
EndChar

StartChar: z
Encoding: 122 122 63
GlifName: z
Width: 1937
VWidth: 4730
Flags: HMW
LayerCount: 2
Fore
SplineSet
831 1847 m 2
 446 1847 262 1594 201 1180 c 1
 164 1180 l 1
 164 1884 l 1
 1806 1884 l 1
 1806 1847 l 1
 696 37 l 1
 1110 37 l 2
 1589 37 1774 246 1835 754 c 1
 1872 754 l 1
 1872 0 l 1
 49 0 l 1
 49 37 l 1
 1155 1847 l 1
 831 1847 l 2
EndSplineSet
EndChar

StartChar: comma
Encoding: 44 44 65
GlifName: comma
Width: 1126
Flags: HMW
LayerCount: 2
Fore
SplineSet
164 324 m 0
 164 521 344 688 561 688 c 0
 782 688 971 499 971 139 c 0
 971 -271 648 -631 156 -631 c 1
 156 -590 l 1
 607 -590 988 -262 918 287 c 1
 873 111 721 -41 524 -41 c 0
 303 -41 164 127 164 324 c 0
EndSplineSet
EndChar

StartChar: exclam
Encoding: 33 33 67
GlifName: exclam
Width: 1556
Flags: HMW
LayerCount: 2
Fore
SplineSet
1139 2617 m 0
 1094 2019 795 1569 795 1057 c 1
 754 1057 l 1
 754 1569 455 2019 410 2617 c 0
 410 2646 410 2670 410 2695 c 0
 410 2924 520 3105 774 3105 c 0
 1028 3105 1143 2924 1143 2695 c 0
 1143 2670 1139 2646 1139 2617 c 0
EndSplineSet
Refer: 1 46 N 1 0 0 1 246 0 2
EndChar

StartChar: quotesingle
Encoding: 39 39 70
GlifName: quotesingle
Width: 1064
Flags: HMW
LayerCount: 2
Fore
SplineSet
856 2707 m 24
 811 2400 553 2306 553 1855 c 1
 512 1855 l 1
 512 2306 254 2400 209 2707 c 24
 205 2736 205 2756 205 2781 c 0
 205 2982 352 3113 532 3113 c 0
 712 3113 860 2982 860 2781 c 0
 860 2756 860 2736 856 2707 c 24
EndSplineSet
EndChar

StartChar: question
Encoding: 63 63 75
GlifName: question
Width: 2396
Flags: HMW
LayerCount: 2
Fore
SplineSet
1012 1466 m 1
 1389 1581 1532 1913 1532 2294 c 0
 1532 2679 1471 3056 1065 3056 c 0
 680 3056 369 2753 328 2540 c 1
 348 2585 443 2662 578 2662 c 0
 758 2662 918 2552 918 2355 c 0
 918 2142 766 2023 582 2023 c 0
 377 2023 246 2159 246 2380 c 0
 246 2736 630 3113 1171 3113 c 0
 1789 3113 2191 2786 2191 2294 c 0
 2191 1823 1733 1479 1053 1442 c 1
 1053 999 l 1
 1012 999 l 1
 1012 1466 l 1
EndSplineSet
Refer: 1 46 N 1 0 0 1 569 0 2
EndChar

StartChar: parenleft
Encoding: 40 40 76
GlifName: parenleft
Width: 1523
Flags: HMW
LayerCount: 2
Fore
SplineSet
1462 -664 m 1
 1446 -696 l 1
 778 -409 266 377 266 1331 c 0
 266 2285 778 2990 1446 3277 c 1
 1462 3244 l 1
 1056 2978 901 2117 901 1331 c 0
 901 545 1056 -398 1462 -664 c 1
EndSplineSet
EndChar

StartChar: at
Encoding: 64 64 79
GlifName: at
Width: 4136
VWidth: 4730
Flags: HMW
LayerCount: 2
Fore
SplineSet
2392 1462 m 0
 2392 823 2093 287 1622 287 c 0
 1270 287 999 516 999 942 c 0
 999 1556 1450 2167 1958 2167 c 0
 2323 2167 2392 1798 2392 1462 c 0
2359 1417 m 0
 2359 1589 2343 2007 2138 2007 c 0
 1917 2007 1659 1466 1659 958 c 0
 1659 684 1720 451 1876 451 c 0
 2097 451 2359 905 2359 1417 c 0
2273 860 m 2
 2568 2130 l 1
 3183 2130 l 1
 2884 844 l 2
 2855 717 2732 369 2978 369 c 0
 3453 369 3875 962 3875 1642 c 0
 3875 2375 3412 3199 2392 3199 c 0
 1221 3199 262 2126 262 864 c 0
 262 -393 987 -840 1716 -840 c 0
 2384 -840 2835 -639 3187 -238 c 1
 3215 -262 l 1
 2871 -663 2384 -877 1716 -877 c 0
 966 -877 225 -422 225 864 c 0
 225 2146 1196 3236 2396 3236 c 0
 3432 3236 3912 2392 3912 1642 c 0
 3912 966 3531 279 2769 279 c 0
 2282 279 2216 606 2273 860 c 2
EndSplineSet
EndChar

StartChar: dollar
Encoding: 36 36 80
GlifName: dollar
Width: 2437
Flags: HMW
LayerCount: 2
Fore
SplineSet
1303 3400 m 1
 1343 3400 l 1
 1343 -328 l 1
 1303 -328 l 1
 1303 3400 l 1
975 3400 m 1
 1024 3400 l 1
 1024 -328 l 1
 975 -328 l 1
 975 3400 l 1
2064 2605 m 1
 1990 2859 1655 3068 1262 3068 c 0
 910 3068 655 2867 655 2572 c 0
 655 1851 2273 2068 2273 901 c 0
 2273 328 1856 -61 1217 -61 c 0
 463 -61 115 328 115 635 c 0
 115 864 250 1032 471 1032 c 0
 635 1032 795 901 795 680 c 0
 795 475 606 373 446 373 c 0
 323 373 229 438 188 516 c 1
 266 287 553 -16 1188 -16 c 0
 1622 -16 1843 226 1843 582 c 0
 1843 1385 225 1085 225 2273 c 0
 225 2785 733 3113 1229 3113 c 0
 1704 3113 2150 2851 2150 2478 c 0
 2150 2249 2023 2101 1802 2101 c 0
 1638 2101 1479 2212 1479 2425 c 0
 1479 2622 1642 2740 1802 2740 c 0
 1908 2740 2007 2687 2064 2605 c 1
EndSplineSet
EndChar

StartChar: numbersign
Encoding: 35 35 81
GlifName: numbersign
Width: 2580
Flags: HMW
LayerCount: 2
Fore
SplineSet
123 1049 m 1
 2335 1049 l 1
 2335 1012 l 1
 123 1012 l 1
 123 1049 l 1
246 2122 m 1
 2458 2122 l 1
 2458 2085 l 1
 246 2085 l 1
 246 2122 l 1
1851 3088 m 1
 1888 3092 l 1
 1479 -20 l 1
 1442 -25 l 1
 1851 3088 l 1
1061 3092 m 1
 1098 3092 l 1
 688 -20 l 1
 651 -20 l 1
 1061 3092 l 1
EndSplineSet
EndChar

StartChar: slash
Encoding: 47 47 82
GlifName: slash
Width: 2129
Flags: HMW
LayerCount: 2
Fore
SplineSet
1929 3195 m 1
 1966 3195 l 1
 201 -614 l 1
 164 -614 l 1
 1929 3195 l 1
EndSplineSet
EndChar

StartChar: percent
Encoding: 37 37 83
GlifName: percent
Width: 4177
Flags: HMW
LayerCount: 2
Fore
SplineSet
2867 860 m 0
 2867 315 2932 -4 3133 -4 c 0
 3334 -4 3400 315 3400 860 c 0
 3400 1405 3334 1724 3133 1724 c 0
 2932 1724 2867 1405 2867 860 c 0
2232 860 m 0
 2232 1446 2670 1761 3133 1761 c 0
 3596 1761 4035 1446 4035 860 c 0
 4035 274 3514 -41 3133 -41 c 0
 2670 -41 2232 274 2232 860 c 0
3129 3072 m 1
 3174 3072 l 1
 1049 0 l 1
 1004 0 l 1
 3129 3072 l 1
778 2212 m 0
 778 1667 843 1348 1044 1348 c 0
 1245 1348 1311 1667 1311 2212 c 0
 1311 2757 1245 3076 1044 3076 c 0
 843 3076 778 2757 778 2212 c 0
143 2212 m 0
 143 2798 581 3113 1044 3113 c 0
 1507 3113 1946 2798 1946 2212 c 0
 1946 1626 1425 1311 1044 1311 c 0
 581 1311 143 1626 143 2212 c 0
EndSplineSet
EndChar

StartChar: hyphen
Encoding: 45 45 85
GlifName: hyphen
Width: 1474
Flags: HMW
LayerCount: 2
Fore
SplineSet
246 1147 m 1
 1229 1147 l 1
 1229 1106 l 1
 246 1106 l 1
 246 1147 l 1
EndSplineSet
EndChar

StartChar: plus
Encoding: 43 43 87
GlifName: plus
Width: 2170
Flags: HMW
LayerCount: 2
Fore
SplineSet
1065 451 m 1
 1065 2130 l 1
 1106 2130 l 1
 1106 451 l 1
 1065 451 l 1
246 1315 m 1
 1925 1315 l 1
 1925 1274 l 1
 246 1274 l 1
 246 1315 l 1
EndSplineSet
EndChar

StartChar: less
Encoding: 60 60 89
GlifName: less
Width: 2293
Flags: HMW
LayerCount: 2
Fore
SplineSet
246 1573 m 1
 246 1610 l 1
 2048 2458 l 1
 2048 2421 l 1
 246 1573 l 1
246 1565 m 1
 246 1602 l 1
 2048 754 l 1
 2048 717 l 1
 246 1565 l 1
EndSplineSet
EndChar

StartChar: backslash
Encoding: 92 92 91
GlifName: backslash
Width: 2129
Flags: HMW
LayerCount: 2
Fore
SplineSet
209 3195 m 1
 1966 -614 l 1
 1921 -614 l 1
 164 3195 l 1
 209 3195 l 1
EndSplineSet
EndChar

StartChar: bracketleft
Encoding: 91 91 92
GlifName: bracketleft
Width: 1454
Flags: HMW
LayerCount: 2
Fore
SplineSet
1331 -614 m 1
 225 -614 l 1
 225 -578 l 1
 1331 -578 l 1
 1331 -614 l 1
1331 3158 m 1
 225 3158 l 1
 225 3195 l 1
 1331 3195 l 1
 1331 3158 l 1
840 3195 m 1
 840 -614 l 1
 225 -614 l 1
 225 3195 l 1
 840 3195 l 1
EndSplineSet
EndChar

StartChar: braceleft
Encoding: 123 123 93
GlifName: braceleft
Width: 1359
VWidth: 4730
Flags: HMW
LayerCount: 2
Fore
SplineSet
1237 3195 m 1
 1237 3158 l 1
 983 3158 852 2908 852 2650 c 0
 852 2380 991 2196 991 1827 c 0
 991 1487 774 1364 225 1282 c 1
 225 1311 l 1
 348 1352 471 1454 471 1622 c 0
 471 1880 225 2065 225 2585 c 0
 225 2991 459 3195 1237 3195 c 1
1237 -614 m 1
 459 -614 225 -406 225 0 c 0
 225 520 471 705 471 963 c 0
 471 1131 348 1229 225 1270 c 1
 225 1303 l 1
 774 1221 991 1098 991 758 c 0
 991 389 852 204 852 -66 c 0
 852 -324 983 -578 1237 -578 c 1
 1237 -614 l 1
EndSplineSet
EndChar

StartChar: bar
Encoding: 124 124 96
GlifName: bar
Width: 942
VWidth: 4730
Flags: HMW
LayerCount: 2
Fore
SplineSet
451 3195 m 1
 492 3195 l 1
 492 -1024 l 1
 451 -1024 l 1
 451 3195 l 1
EndSplineSet
EndChar

StartChar: cent
Encoding: 162 162 98
GlifName: cent
Width: 2105
VWidth: 4730
Flags: HMW
LayerCount: 2
Fore
SplineSet
1188 2273 m 1
 1188 -348 l 1
 1151 -348 l 1
 1151 2273 l 1
 1188 2273 l 1
EndSplineSet
Refer: 40 99 N 1 0 0 1 0 0 2
EndChar

StartChar: sterling
Encoding: 163 163 99
GlifName: sterling
Width: 2686
VWidth: 4730
Flags: HMW
LayerCount: 2
Fore
SplineSet
2589 889 m 1
 2589 90 2298 -123 1831 -123 c 0
 1270 -123 1024 123 766 123 c 0
 598 123 377 41 336 -82 c 1
 311 -82 l 1
 372 221 713 643 1114 643 c 0
 1483 643 1659 504 1929 504 c 0
 2212 504 2552 553 2552 889 c 1
 2589 889 l 1
1905 1647 m 1
 1905 1610 l 1
 61 1610 l 1
 61 1647 l 1
 1905 1647 l 1
401 2253 m 0
 401 2826 852 3113 1573 3113 c 0
 2237 3113 2589 2728 2589 2392 c 0
 2589 2163 2442 2003 2245 2003 c 0
 2061 2003 1868 2130 1868 2355 c 0
 1868 2560 2044 2703 2224 2703 c 0
 2367 2703 2445 2613 2478 2572 c 1
 2412 2793 2130 3056 1671 3056 c 0
 1245 3056 1102 2740 1102 2396 c 0
 1102 1990 1331 1802 1331 1454 c 0
 1331 696 279 696 332 -82 c 1
 295 -82 l 1
 217 487 733 807 733 1069 c 0
 733 1536 401 1782 401 2253 c 0
EndSplineSet
EndChar

StartChar: section
Encoding: 167 167 101
GlifName: section
Width: 1949
VWidth: 4730
Flags: HMW
LayerCount: 2
Fore
SplineSet
553 2671 m 0
 553 2216 1794 2216 1794 1589 c 0
 1794 1294 1561 1192 1360 1065 c 1
 1311 1073 l 1
 1397 1147 1491 1208 1491 1343 c 0
 1491 1798 274 1704 274 2449 c 0
 274 2875 635 3113 1024 3113 c 0
 1364 3113 1778 2974 1778 2540 c 0
 1778 2352 1650 2204 1466 2204 c 0
 1302 2204 1188 2331 1188 2499 c 0
 1188 2651 1323 2777 1483 2777 c 0
 1569 2777 1638 2732 1667 2703 c 1
 1585 2924 1323 3052 1024 3052 c 0
 786 3052 553 2888 553 2671 c 0
1786 664 m 0
 1786 238 1450 -41 938 -41 c 0
 578 -41 123 103 123 537 c 0
 123 725 246 872 430 872 c 0
 594 872 713 750 713 582 c 0
 713 430 582 311 422 311 c 0
 324 311 249 364 229 393 c 1
 303 147 627 20 938 20 c 0
 1319 20 1479 238 1479 414 c 0
 1479 869 197 828 197 1434 c 0
 197 1749 438 1922 598 2028 c 1
 655 2028 l 1
 614 1979 524 1884 524 1741 c 0
 524 1286 1786 1409 1786 664 c 0
EndSplineSet
EndChar

StartChar: asciitilde
Encoding: 126 126 104
GlifName: asciitilde
Width: 2818
VWidth: 4730
Flags: HMW
LayerCount: 2
Fore
SplineSet
840 1729 m 0
 623 1729 446 1638 446 1405 c 1
 410 1405 l 1
 410 1876 655 2150 1020 2150 c 0
 1471 2150 1531 1765 1937 1765 c 0
 2195 1765 2372 1856 2372 2089 c 1
 2408 2089 l 1
 2408 1618 2163 1343 1798 1343 c 0
 1278 1343 1274 1729 840 1729 c 0
EndSplineSet
EndChar

StartChar: copyright
Encoding: 169 169 105
GlifName: copyright
Width: 3563
Flags: HMW
LayerCount: 2
Fore
SplineSet
205 1536 m 0
 205 2408 910 3113 1782 3113 c 0
 2654 3113 3359 2408 3359 1536 c 0
 3359 664 2654 -41 1782 -41 c 0
 910 -41 205 664 205 1536 c 0
242 1536 m 0
 242 688 934 -4 1782 -4 c 0
 2630 -4 3322 688 3322 1536 c 0
 3322 2384 2630 3076 1782 3076 c 0
 934 3076 242 2384 242 1536 c 0
EndSplineSet
Refer: 14 67 N 0.6 0 0 0.6 827 614 2
EndChar

StartChar: registered
Encoding: 174 174 106
GlifName: registered
Width: 3563
Flags: HMW
LayerCount: 2
Fore
SplineSet
205 1536 m 0
 205 2408 910 3113 1782 3113 c 0
 2654 3113 3359 2408 3359 1536 c 0
 3359 664 2654 -41 1782 -41 c 0
 910 -41 205 664 205 1536 c 0
242 1536 m 0
 242 688 934 -4 1782 -4 c 0
 2630 -4 3322 688 3322 1536 c 0
 3322 2384 2630 3076 1782 3076 c 0
 934 3076 242 2384 242 1536 c 0
EndSplineSet
Refer: 29 82 N 0.6 0 0 0.6 913 606 2
EndChar

StartChar: logicalnot
Encoding: 172 172 107
GlifName: logicalnot
Width: 1990
Flags: HMW
LayerCount: 2
Fore
SplineSet
1708 2482 m 1
 246 2482 l 1
 246 2519 l 1
 1745 2519 l 1
 1745 1692 l 1
 1708 1692 l 1
 1708 2482 l 1
EndSplineSet
EndChar

StartChar: guillemotleft
Encoding: 171 171 108
GlifName: guillemotleft
Width: 2969
Flags: HMW
LayerCount: 2
Fore
SplineSet
2011 1589 m 1
 2744 614 l 1
 2724 594 l 1
 1249 1548 l 1
 1249 1626 l 1
 2724 2580 l 1
 2744 2560 l 1
 2011 1589 l 1
823 1589 m 1
 1597 614 l 1
 1577 594 l 1
 102 1548 l 1
 102 1626 l 1
 1577 2580 l 1
 1597 2560 l 1
 823 1589 l 1
EndSplineSet
EndChar

StartChar: mu
Encoding: 181 181 111
GlifName: mu
Width: 2416
VWidth: 4730
Flags: HMW
LayerCount: 2
Fore
SplineSet
1049 -504 m 0
 1184 -504 1290 -622 1290 -778 c 0
 1290 -938 1204 -1065 905 -1065 c 0
 618 -1065 373 -865 373 -496 c 2
 373 1315 l 1
 410 1315 l 1
 410 -496 l 2
 410 -848 639 -1048 967 -1028 c 1
 967 -1028 l 1
 865 -971 803 -868 803 -745 c 0
 803 -610 914 -504 1049 -504 c 0
EndSplineSet
Refer: 58 117 N 1 0 0 1 0 0 2
EndChar

StartChar: asciicircum
Encoding: 94 94 113
GlifName: asciicircum
Width: 2232
Flags: HMW
LayerCount: 2
Fore
SplineSet
1114 2961 m 1
 430 2560 l 1
 410 2580 l 1
 983 3154 l 1
 1249 3154 l 1
 1823 2580 l 1
 1802 2560 l 1
 1114 2961 l 1
EndSplineSet
EndChar

StartChar: degree
Encoding: 176 176 115
GlifName: degree
Width: 1310
Flags: HMW
LayerCount: 2
Fore
SplineSet
164 2785 m 0
 164 3055 385 3277 655 3277 c 0
 925 3277 1147 3055 1147 2785 c 0
 1147 2515 925 2294 655 2294 c 0
 385 2294 164 2515 164 2785 c 0
303 2785 m 0
 303 2584 454 2433 655 2433 c 0
 856 2433 1008 2584 1008 2785 c 0
 1008 2986 856 3138 655 3138 c 0
 454 3138 303 2986 303 2785 c 0
EndSplineSet
EndChar

StartChar: onequarter
Encoding: 188 188 119
GlifName: onequarter
Width: 2748
Flags: HMW
LayerCount: 2
Fore
SplineSet
2118 2662 m 1
 2154 2662 l 1
 201 -410 l 1
 164 -410 l 1
 2118 2662 l 1
EndSplineSet
Refer: 6 52 N 0.6 0 0 0.6 1106 -422 2
Refer: 3 49 N 0.6 0 0 0.6 -33 1458 2
EndChar

StartChar: onehalf
Encoding: 189 189 120
GlifName: onehalf
Width: 2867
Flags: HMW
LayerCount: 2
Fore
SplineSet
2118 2662 m 1
 2154 2662 l 1
 201 -410 l 1
 164 -410 l 1
 2118 2662 l 1
EndSplineSet
Refer: 4 50 N 0.6 0 0 0.6 1397 -414 2
Refer: 3 49 N 0.6 0 0 0.6 -33 1458 2
EndChar

StartChar: threequarters
Encoding: 190 190 121
GlifName: threequarters
Width: 2994
Flags: HMW
LayerCount: 2
Fore
SplineSet
2363 2662 m 1
 2400 2662 l 1
 446 -410 l 1
 410 -410 l 1
 2363 2662 l 1
EndSplineSet
Refer: 5 51 N 0.6 0 0 0.6 20 1450 2
Refer: 6 52 N 0.6 0 0 0.6 1352 -422 2
EndChar

StartChar: grave
Encoding: 96 96 123
GlifName: grave
Width: 1679
Flags: HMW
LayerCount: 2
Fore
SplineSet
492 2867 m 2
 353 2851 225 2953 225 3092 c 0
 225 3231 372 3367 532 3310 c 2
 1446 2990 l 1
 1434 2949 l 1
 492 2867 l 2
EndSplineSet
EndChar

StartChar: acute
Encoding: 180 180 124
GlifName: acute
Width: 1679
Flags: HMW
LayerCount: 2
Fore
SplineSet
1188 2867 m 2
 246 2949 l 1
 233 2990 l 1
 1147 3310 l 2
 1307 3367 1454 3231 1454 3092 c 0
 1454 2953 1327 2851 1188 2867 c 2
EndSplineSet
EndChar

StartChar: cedilla
Encoding: 184 184 128
GlifName: cedilla
Width: 2252
Flags: HMW
LayerCount: 2
Fore
SplineSet
1266 -573 m 0
 1266 -356 1094 -324 889 -324 c 1
 1257 168 l 1
 1311 168 l 1
 1065 -160 l 1
 1446 -172 1720 -263 1720 -492 c 0
 1720 -697 1523 -877 905 -877 c 1
 905 -844 l 1
 1147 -844 1266 -725 1266 -573 c 0
EndSplineSet
EndChar

StartChar: ring
Encoding: 730 730 271
GlifName: ring
Width: 1310
VWidth: 0
Flags: HMW
LayerCount: 2
Fore
SplineSet
246 2785 m 0
 246 2994 405 3154 655 3154 c 0
 905 3154 1065 2994 1065 2785 c 0
 1065 2576 905 2417 655 2417 c 0
 405 2417 246 2576 246 2785 c 0
492 2785 m 0
 492 2580 532 2454 655 2454 c 0
 778 2454 819 2580 819 2785 c 0
 819 2990 778 3117 655 3117 c 0
 532 3117 492 2990 492 2785 c 0
EndSplineSet
EndChar

StartChar: tilde
Encoding: 732 732 272
GlifName: tilde
Width: 1835
VWidth: 0
Flags: HMW
LayerCount: 2
Fore
SplineSet
492 2679 m 0
 353 2679 242 2589 242 2437 c 1
 205 2437 l 1
 205 2785 348 3039 610 3039 c 0
 938 3039 1081 2716 1343 2716 c 0
 1495 2716 1593 2805 1593 2957 c 1
 1630 2957 l 1
 1630 2568 1569 2355 1266 2355 c 0
 951 2355 783 2679 492 2679 c 0
EndSplineSet
EndChar

StartChar: AE
Encoding: 198 198 274
GlifName: A_E_
Width: 4280
Flags: HMW
LayerCount: 2
Fore
SplineSet
2150 3072 m 1
 2195 3072 l 1
 459 0 l 1
 401 0 l 1
 2150 3072 l 1
61 37 m 1
 963 37 l 1
 963 0 l 1
 61 0 l 1
 61 37 l 1
1008 1024 m 1
 2191 1024 l 1
 2191 983 l 1
 1008 983 l 1
 1008 1024 l 1
2150 3072 m 1
 2785 3072 l 1
 2785 0 l 1
 2150 0 l 1
 2150 3072 l 1
2150 3072 m 1
 4116 3072 l 1
 4116 2232 l 1
 4080 2232 l 1
 4019 2670 3736 3035 3277 3035 c 2
 2150 3035 l 1
 2150 3072 l 1
4157 0 m 1
 1782 0 l 1
 1782 37 l 1
 3236 37 l 2
 3777 37 4060 402 4121 922 c 1
 4157 922 l 1
 4157 0 l 1
3445 1077 m 1
 3384 1351 3162 1569 2929 1569 c 2
 2683 1569 l 1
 2683 1610 l 1
 2929 1610 l 2
 3162 1610 3384 1807 3445 2081 c 1
 3482 2081 l 1
 3482 1077 l 1
 3445 1077 l 1
EndSplineSet
EndChar

StartChar: ae
Encoding: 230 230 277
GlifName: ae
Width: 3411
VWidth: 4730
Flags: HMW
LayerCount: 2
Fore
SplineSet
287 1479 m 0
 287 1741 643 1917 1057 1917 c 0
 1589 1917 1806 1622 1806 1249 c 1
 1786 741 l 1
 1786 233 1376 -41 901 -41 c 0
 455 -41 143 119 143 463 c 0
 143 807 458 1057 1040 1057 c 2
 1671 1057 l 1
 1671 1020 l 1
 1184 1020 l 2
 934 1020 766 787 766 492 c 0
 766 218 860 8 1024 8 c 0
 1196 8 1335 266 1335 639 c 2
 1335 1249 l 2
 1335 1523 1278 1868 950 1868 c 0
 766 1868 582 1802 500 1720 c 1
 729 1810 946 1680 946 1487 c 0
 946 1303 766 1192 602 1192 c 0
 418 1192 287 1311 287 1479 c 0
2695 1073 m 1
 2691 1429 2670 1888 2408 1888 c 0
 2125 1888 2048 1450 2048 983 c 0
 2048 516 2130 16 2523 16 c 0
 2900 16 3171 258 3273 586 c 1
 3310 586 l 1
 3204 230 2913 -41 2417 -41 c 0
 1901 -41 1536 307 1536 942 c 0
 1536 1577 1892 1925 2408 1925 c 0
 3018 1925 3305 1486 3305 1040 c 1
 1815 1040 l 1
 1815 1073 l 1
 2695 1073 l 1
EndSplineSet
EndChar

StartChar: uni2010
Encoding: 8208 8208 279
GlifName: uni2010
Width: 1474
Flags: HMW
LayerCount: 2
Fore
SplineSet
246 1147 m 1
 1229 1147 l 1
 1229 1106 l 1
 246 1106 l 1
 246 1147 l 1
EndSplineSet
EndChar

StartChar: uni2011
Encoding: 8209 8209 280
GlifName: uni2011
Width: 1175
Flags: HMW
LayerCount: 2
Fore
SplineSet
246 1147 m 1
 930 1147 l 1
 930 1106 l 1
 246 1106 l 1
 246 1147 l 1
EndSplineSet
EndChar

StartChar: figuredash
Encoding: 8210 8210 282
GlifName: figuredash
Width: 1822
Flags: HMW
LayerCount: 2
Fore
SplineSet
246 1147 m 1
 1577 1147 l 1
 1577 1106 l 1
 246 1106 l 1
 246 1147 l 1
EndSplineSet
EndChar

StartChar: perthousand
Encoding: 8240 8240 285
GlifName: perthousand
Width: 6184
Flags: HMW
LayerCount: 2
Fore
SplineSet
4874 860 m 0
 4874 315 4939 -4 5140 -4 c 0
 5341 -4 5407 315 5407 860 c 0
 5407 1405 5341 1724 5140 1724 c 0
 4939 1724 4874 1405 4874 860 c 0
4239 860 m 0
 4239 1446 4677 1761 5140 1761 c 0
 5603 1761 6042 1446 6042 860 c 0
 6042 274 5521 -41 5140 -41 c 0
 4677 -41 4239 274 4239 860 c 0
2867 860 m 0
 2867 315 2932 -4 3133 -4 c 0
 3334 -4 3400 315 3400 860 c 0
 3400 1405 3334 1724 3133 1724 c 0
 2932 1724 2867 1405 2867 860 c 0
2232 860 m 0
 2232 1446 2670 1761 3133 1761 c 0
 3596 1761 4035 1446 4035 860 c 0
 4035 274 3514 -41 3133 -41 c 0
 2670 -41 2232 274 2232 860 c 0
3129 3072 m 1
 3174 3072 l 1
 1049 0 l 1
 1004 0 l 1
 3129 3072 l 1
778 2212 m 0
 778 1667 843 1348 1044 1348 c 0
 1245 1348 1311 1667 1311 2212 c 0
 1311 2757 1245 3076 1044 3076 c 0
 843 3076 778 2757 778 2212 c 0
143 2212 m 0
 143 2798 581 3113 1044 3113 c 0
 1507 3113 1946 2798 1946 2212 c 0
 1946 1626 1425 1311 1044 1311 c 0
 581 1311 143 1626 143 2212 c 0
EndSplineSet
EndChar

StartChar: uni2031
Encoding: 8241 8241 286
GlifName: uni2031
Width: 8212
Flags: HMW
LayerCount: 2
Fore
SplineSet
6902 860 m 0
 6902 315 6967 -4 7168 -4 c 0
 7369 -4 7434 315 7434 860 c 0
 7434 1405 7369 1724 7168 1724 c 0
 6967 1724 6902 1405 6902 860 c 0
6267 860 m 0
 6267 1446 6705 1761 7168 1761 c 0
 7631 1761 8069 1446 8069 860 c 0
 8069 274 7549 -41 7168 -41 c 0
 6705 -41 6267 274 6267 860 c 0
4874 860 m 0
 4874 315 4939 -4 5140 -4 c 0
 5341 -4 5407 315 5407 860 c 0
 5407 1405 5341 1724 5140 1724 c 0
 4939 1724 4874 1405 4874 860 c 0
4239 860 m 0
 4239 1446 4677 1761 5140 1761 c 0
 5603 1761 6042 1446 6042 860 c 0
 6042 274 5521 -41 5140 -41 c 0
 4677 -41 4239 274 4239 860 c 0
2867 860 m 0
 2867 315 2932 -4 3133 -4 c 0
 3334 -4 3400 315 3400 860 c 0
 3400 1405 3334 1724 3133 1724 c 0
 2932 1724 2867 1405 2867 860 c 0
2232 860 m 0
 2232 1446 2670 1761 3133 1761 c 0
 3596 1761 4035 1446 4035 860 c 0
 4035 274 3514 -41 3133 -41 c 0
 2670 -41 2232 274 2232 860 c 0
3129 3072 m 1
 3174 3072 l 1
 1049 0 l 1
 1004 0 l 1
 3129 3072 l 1
778 2212 m 0
 778 1667 843 1348 1044 1348 c 0
 1245 1348 1311 1667 1311 2212 c 0
 1311 2757 1245 3076 1044 3076 c 0
 843 3076 778 2757 778 2212 c 0
143 2212 m 0
 143 2798 581 3113 1044 3113 c 0
 1507 3113 1946 2798 1946 2212 c 0
 1946 1626 1425 1311 1044 1311 c 0
 581 1311 143 1626 143 2212 c 0
EndSplineSet
EndChar

StartChar: uniFB00
Encoding: 64256 64256 290
GlifName: uniF_B_00
Width: 2867
VWidth: 4730
Flags: HMW
LayerCount: 2
Fore
SplineSet
49 37 m 1
 2736 37 l 1
 2736 0 l 1
 49 0 l 1
 49 37 l 1
49 1884 m 1
 2818 1884 l 1
 2818 1847 l 1
 49 1847 l 1
 49 1884 l 1
1974 2572 m 1
 1941 2703 1733 2867 1491 2867 c 0
 1172 2867 975 2527 975 2007 c 2
 975 0 l 1
 418 0 l 1
 418 1892 l 2
 418 2470 861 2908 1475 2908 c 0
 1827 2908 2081 2663 2081 2421 c 0
 2081 2212 1945 2085 1761 2085 c 0
 1597 2085 1434 2187 1434 2392 c 0
 1434 2597 1569 2703 1745 2703 c 0
 1868 2703 1962 2605 1974 2572 c 1
3162 2793 m 1
 3129 2920 2974 3072 2712 3072 c 0
 2384 3072 2253 2732 2253 2212 c 2
 2253 0 l 1
 1700 0 l 1
 1700 2097 l 2
 1700 2675 2097 3113 2691 3113 c 0
 3043 3113 3256 2879 3256 2646 c 0
 3256 2437 3125 2310 2941 2310 c 0
 2777 2310 2609 2408 2609 2613 c 0
 2609 2818 2757 2933 2933 2933 c 0
 3039 2933 3137 2867 3162 2793 c 1
EndSplineSet
Ligature2: "'liga' Standard Ligatures lookup 0-1" f f
LCarets2: 1 0
EndChar

StartChar: uniFB01
Encoding: 64257 64257 291
GlifName: uniF_B_01
Width: 2568
VWidth: 4730
Flags: HMW
LayerCount: 2
Fore
SplineSet
418 2097 m 2
 418 2695 839 3113 1556 3113 c 0
 1990 3113 2220 2880 2220 2626 c 0
 2220 2417 2093 2290 1909 2290 c 0
 1745 2290 1573 2396 1573 2593 c 0
 1573 2794 1725 2908 1901 2908 c 0
 2016 2908 2097 2843 2122 2761 c 1
 2085 2925 1892 3076 1556 3076 c 0
 1114 3076 975 2732 975 2212 c 2
 975 0 l 1
 418 0 l 1
 418 2097 l 2
49 37 m 1
 2499 37 l 1
 2499 0 l 1
 49 0 l 1
 49 37 l 1
1638 1847 m 1
 49 1847 l 1
 49 1884 l 1
 2212 1884 l 1
 2212 0 l 1
 1638 0 l 1
 1638 1847 l 1
EndSplineSet
Ligature2: "'liga' Standard Ligatures lookup 0-1" f i
LCarets2: 1 0
EndChar

StartChar: uniFB02
Encoding: 64258 64258 292
GlifName: uniF_B_02
Width: 2752
VWidth: 4730
Flags: HMW
LayerCount: 2
Fore
SplineSet
49 37 m 1
 2712 37 l 1
 2712 0 l 1
 49 0 l 1
 49 37 l 1
49 1884 m 1
 1536 1884 l 1
 1536 1847 l 1
 49 1847 l 1
 49 1884 l 1
1810 2990 m 1
 2384 3154 l 1
 2384 0 l 1
 1810 0 l 1
 1810 2990 l 1
1909 2765 m 1
 1884 2904 1720 3072 1450 3072 c 0
 1098 3072 975 2732 975 2212 c 2
 975 0 l 1
 418 0 l 1
 418 2097 l 2
 418 2675 840 3113 1434 3113 c 0
 1786 3113 1999 2880 1999 2626 c 0
 1999 2417 1863 2290 1679 2290 c 0
 1515 2290 1352 2388 1352 2593 c 0
 1352 2798 1491 2908 1671 2908 c 0
 1827 2908 1905 2765 1909 2765 c 1
EndSplineSet
Ligature2: "'liga' Standard Ligatures lookup 0-1" f l
LCarets2: 1 0
EndChar

StartChar: uniFB03
Encoding: 64259 64259 293
GlifName: uniF_B_03
Width: 3809
VWidth: 4730
Flags: HMW
LayerCount: 2
Fore
SplineSet
1659 2097 m 2
 1659 2695 2076 3113 2793 3113 c 0
 3227 3113 3461 2880 3461 2626 c 0
 3461 2417 3330 2290 3146 2290 c 0
 2982 2290 2814 2396 2814 2593 c 0
 2814 2794 2957 2908 3133 2908 c 0
 3264 2908 3343 2835 3359 2761 c 1
 3318 2925 3129 3072 2793 3072 c 0
 2351 3072 2212 2732 2212 2212 c 2
 2212 0 l 1
 1659 0 l 1
 1659 2097 l 2
49 37 m 1
 3736 37 l 1
 3736 0 l 1
 49 0 l 1
 49 37 l 1
418 1892 m 2
 418 2465 861 2908 1475 2908 c 0
 1827 2908 2081 2663 2081 2421 c 0
 2081 2212 1945 2085 1761 2085 c 0
 1597 2085 1434 2187 1434 2392 c 0
 1434 2597 1569 2703 1745 2703 c 0
 1868 2703 1946 2630 1958 2597 c 1
 1917 2720 1737 2867 1491 2867 c 0
 1172 2867 975 2527 975 2007 c 2
 975 0 l 1
 418 0 l 1
 418 1892 l 2
2875 1847 m 1
 49 1847 l 1
 49 1884 l 1
 3449 1884 l 1
 3449 0 l 1
 2875 0 l 1
 2875 1847 l 1
EndSplineSet
Ligature2: "'liga' Standard Ligatures lookup 0-1" f f i
LCarets2: 2 0 0
EndChar

StartChar: uniFB04
Encoding: 64260 64260 294
GlifName: uniF_B_04
Width: 4055
VWidth: 4730
Flags: HMW
LayerCount: 2
Fore
SplineSet
49 37 m 1
 3994 37 l 1
 3994 0 l 1
 49 0 l 1
 49 37 l 1
49 1884 m 1
 2818 1884 l 1
 2818 1847 l 1
 49 1847 l 1
 49 1884 l 1
3092 2990 m 1
 3666 3154 l 1
 3666 0 l 1
 3092 0 l 1
 3092 2990 l 1
1962 2597 m 1
 1921 2720 1733 2867 1491 2867 c 0
 1172 2867 975 2527 975 2007 c 2
 975 0 l 1
 418 0 l 1
 418 1892 l 2
 418 2465 861 2908 1475 2908 c 0
 1827 2908 2081 2663 2081 2421 c 0
 2081 2212 1945 2085 1761 2085 c 0
 1597 2085 1434 2187 1434 2392 c 0
 1434 2597 1569 2703 1745 2703 c 0
 1851 2703 1950 2630 1962 2597 c 1
3183 2777 m 1
 3150 2933 2970 3076 2732 3076 c 0
 2380 3076 2253 2732 2253 2212 c 2
 2253 0 l 1
 1700 0 l 1
 1700 2097 l 2
 1700 2675 2118 3113 2712 3113 c 0
 3064 3113 3277 2880 3277 2626 c 0
 3277 2417 3145 2290 2961 2290 c 0
 2797 2290 2630 2388 2630 2593 c 0
 2630 2798 2769 2908 2949 2908 c 0
 3105 2908 3179 2777 3183 2777 c 1
EndSplineSet
Ligature2: "'liga' Standard Ligatures lookup 0-1" f f l
LCarets2: 2 0 0
EndChar

StartChar: ogonek
Encoding: 731 731 295
GlifName: ogonek
Width: 2252
Flags: HMW
LayerCount: 2
Fore
SplineSet
1638 -504 m 1
 1577 -619 1482 -803 1130 -803 c 0
 860 -803 623 -697 623 -451 c 0
 623 -123 1024 86 1335 176 c 1
 1348 152 l 1
 1262 103 1171 -78 1171 -332 c 0
 1171 -557 1249 -688 1368 -688 c 0
 1483 -688 1557 -598 1614 -492 c 1
 1638 -504 l 1
EndSplineSet
EndChar

StartChar: dotlessi
Encoding: 305 305 296
GlifName: dotlessi
Width: 1310
VWidth: 4730
Flags: HMW
LayerCount: 2
Fore
SplineSet
82 37 m 1
 1229 37 l 1
 1229 0 l 1
 82 0 l 1
 82 37 l 1
369 1847 m 1
 82 1847 l 1
 82 1884 l 1
 942 1884 l 1
 942 0 l 1
 369 0 l 1
 369 1847 l 1
EndSplineSet
EndChar

StartChar: uni0237
Encoding: 567 567 297
GlifName: uni0237
Width: 1323
VWidth: 4730
Flags: HMW
LayerCount: 2
Fore
SplineSet
1016 1884 m 1
 1016 -49 l 2
 1016 -586 700 -1065 127 -1065 c 0
 -246 -1065 -500 -852 -500 -582 c 0
 -500 -373 -344 -242 -164 -242 c 0
 0 -242 168 -340 168 -545 c 0
 168 -742 25 -856 -188 -856 c 0
 -303 -856 -373 -783 -385 -709 c 1
 -369 -856 -180 -1020 82 -1020 c 0
 512 -1020 434 -434 434 86 c 2
 442 1847 l 1
 74 1847 l 1
 74 1884 l 1
 1016 1884 l 1
EndSplineSet
EndChar

StartChar: kgreenlandic
Encoding: 312 312 306
GlifName: kgreenlandic
Width: 2662
VWidth: 4730
Flags: HMW
LayerCount: 2
Fore
SplineSet
2421 0 m 1
 1712 0 l 1
 901 1090 l 1
 2015 1884 l 1
 2073 1884 l 1
 1368 1360 l 1
 2421 0 l 1
1421 37 m 1
 2576 37 l 1
 2576 0 l 1
 1421 0 l 1
 1421 37 l 1
2376 1847 m 1
 1462 1847 l 1
 1462 1884 l 1
 2376 1884 l 1
 2376 1847 l 1
74 37 m 1
 1241 37 l 1
 1241 0 l 1
 74 0 l 1
 74 37 l 1
442 1847 m 1
 74 1847 l 1
 74 1884 l 1
 1016 1884 l 1
 1016 0 l 1
 442 0 l 1
 442 1847 l 1
EndSplineSet
EndChar

StartChar: breve
Encoding: 728 728 307
GlifName: breve
Width: 1228
VWidth: 4730
Flags: HMW
LayerCount: 2
Fore
SplineSet
160 3109 m 1
 160 2921 393 2847 614 2847 c 0
 835 2847 1069 2921 1069 3109 c 1
 1106 3109 l 1
 1106 2716 962 2458 614 2458 c 0
 266 2458 123 2716 123 3109 c 1
 160 3109 l 1
EndSplineSet
EndChar

StartChar: thorn
Encoding: 254 254 318
GlifName: thorn
Width: 2551
VWidth: 4730
Flags: HMW
LayerCount: 2
Fore
SplineSet
893 942 m 0
 893 1565 1127 1921 1561 1921 c 0
 2007 1921 2429 1556 2429 942 c 0
 2429 328 2007 -41 1561 -41 c 0
 1127 -41 893 319 893 942 c 0
922 942 m 0
 922 328 1183 41 1421 41 c 0
 1671 41 1774 369 1774 942 c 0
 1774 1515 1675 1843 1425 1843 c 0
 1183 1843 922 1556 922 942 c 0
61 -987 m 1
 1208 -987 l 1
 1208 -1024 l 1
 61 -1024 l 1
 61 -987 l 1
348 3035 m 1
 61 3035 l 1
 61 3072 l 1
 922 3072 l 1
 922 -1024 l 1
 348 -1024 l 1
 348 3035 l 1
EndSplineSet
EndChar

StartChar: Thorn
Encoding: 222 222 319
GlifName: T_horn
Width: 2744
Flags: HMW
LayerCount: 2
Fore
SplineSet
430 3072 m 1
 1065 3072 l 1
 1065 0 l 1
 430 0 l 1
 430 3072 l 1
61 37 m 1
 1434 37 l 1
 1434 0 l 1
 61 0 l 1
 61 37 l 1
61 3072 m 1
 1434 3072 l 1
 1434 3035 l 1
 61 3035 l 1
 61 3072 l 1
1516 737 m 2
 983 737 l 1
 983 774 l 1
 1372 774 l 2
 1765 774 1905 1232 1905 1597 c 0
 1905 1962 1765 2421 1372 2421 c 2
 983 2421 l 1
 983 2458 l 1
 1516 2458 l 2
 2257 2458 2601 2129 2601 1597 c 0
 2601 1065 2257 737 1516 737 c 2
EndSplineSet
EndChar

StartChar: Lslash
Encoding: 321 321 324
GlifName: L_slash
Width: 2519
Flags: HMW
LayerCount: 2
Fore
SplineSet
61 1475 m 1
 1679 2376 l 1
 1679 2331 l 1
 61 1430 l 1
 61 1475 l 1
EndSplineSet
Refer: 23 76 N 1 0 0 1 0 0 2
EndChar

StartChar: lslash
Encoding: 322 322 325
GlifName: lslash
Width: 1421
VWidth: 4730
Flags: HMW
LayerCount: 2
Fore
SplineSet
49 1556 m 1
 1421 2376 l 1
 1421 2327 l 1
 49 1507 l 1
 49 1556 l 1
EndSplineSet
Refer: 49 108 N 1 0 0 1 0 0 2
EndChar

StartChar: eth
Encoding: 240 240 329
GlifName: eth
Width: 2498
VWidth: 4730
Flags: HMW
LayerCount: 2
Fore
SplineSet
532 2580 m 1
 2355 2580 l 1
 2355 2544 l 1
 532 2544 l 1
 532 2580 l 1
2294 1270 m 0
 2294 410 1851 -41 1192 -41 c 0
 533 -41 123 410 123 1024 c 0
 123 1720 626 2015 1081 2015 c 0
 1540 2015 1647 1647 1647 1147 c 1
 1618 1147 l 1
 1618 1684 1462 1942 1200 1942 c 0
 938 1942 799 1675 799 1024 c 0
 799 455 856 -4 1180 -4 c 0
 1504 -4 1618 496 1618 1147 c 1
 1622 1401 l 1
 1622 2146 1163 3084 430 3084 c 1
 430 3113 l 1
 1487 3113 2294 2302 2294 1270 c 0
EndSplineSet
EndChar

StartChar: OE
Encoding: 338 338 330
GlifName: O_E_
Width: 4063
Flags: HMW
LayerCount: 2
Fore
SplineSet
1647 3035 m 1025,0,0
881 1536 m 0,0,0
 881 729 1078 37 1647 37 c 1,0,0
 1565 0 l 1,0,0
 734 0 164 623 164 1536 c 0,0,0
 164 2449 734 3072 1565 3072 c 1,0,0
 1647 3035 l 1,0,0
 1078 3035 881 2343 881 1536 c 0,0,0
EndSplineSet
Refer: 16 69 N 1 0 0 1 1495 0 2
EndChar

StartChar: germandbls
Encoding: 223 223 332
GlifName: germandbls
Width: 3158
VWidth: 4730
Flags: HMW
LayerCount: 2
Fore
SplineSet
1651 1651 m 1
 1651 1679 l 1
 2097 1679 2212 2077 2212 2339 c 0
 2212 2634 2098 3080 1692 3080 c 0
 1184 3080 1044 2552 1044 1970 c 2
 1044 0 l 1
 430 0 l 1
 430 2011 l 2
 430 2761 1044 3113 1712 3113 c 0
 2298 3113 2871 2822 2871 2380 c 0
 2871 1929 2474 1651 1651 1651 c 1
61 37 m 1
 1413 37 l 1
 1413 0 l 1
 61 0 l 1
 61 37 l 1
2994 717 m 0
 2994 225 2528 -41 2032 -41 c 0
 1659 -41 1384 221 1384 639 c 0
 1384 868 1557 987 1741 987 c 0
 1905 987 2064 885 2064 676 c 0
 2064 483 1889 369 1729 369 c 0
 1610 369 1479 443 1442 545 c 1
 1462 226 1716 8 1970 8 c 0
 2273 8 2335 393 2335 655 c 0
 2335 1040 2261 1642 1651 1642 c 1
 1651 1671 l 1
 2638 1671 2994 1249 2994 717 c 0
EndSplineSet
EndChar

StartChar: circumflex
Encoding: 710 710 335
GlifName: circumflex
Width: 1740
Flags: HMW
LayerCount: 2
Fore
SplineSet
868 2867 m 1
 225 2580 l 1
 205 2601 l 1
 696 3154 l 1
 1044 3154 l 1
 1536 2601 l 1
 1516 2580 l 1
 868 2867 l 1
EndSplineSet
EndChar

StartChar: caron
Encoding: 711 711 336
GlifName: caron
Width: 1740
Flags: HMW
LayerCount: 2
Fore
SplineSet
868 2929 m 1
 1516 3215 l 1
 1536 3195 l 1
 1044 2642 l 1
 696 2642 l 1
 205 3195 l 1
 225 3215 l 1
 868 2929 l 1
EndSplineSet
EndChar

StartChar: pi
Encoding: 960 960 337
GlifName: pi
Width: 2584
VWidth: 4730
Flags: HMW
LayerCount: 2
Fore
SplineSet
2441 422 m 1
 2347 135 2187 -41 1896 -41 c 0
 1622 -41 1417 78 1417 340 c 2
 1417 1720 l 1
 1991 1720 l 1
 1991 344 l 2
 1991 262 2035 188 2146 188 c 0
 2240 188 2335 258 2417 438 c 1
 2441 422 l 1
508 -41 m 0
 299 -41 164 74 164 238 c 0
 164 619 807 438 807 1143 c 2
 807 1843 l 1
 1036 1843 l 1
 1036 995 l 2
 1036 348 848 -41 508 -41 c 0
2359 1884 m 1
 2359 1311 l 1
 205 1311 l 1
 205 1004 l 1
 168 1004 l 1
 168 1884 l 1
 2359 1884 l 1
EndSplineSet
EndChar

StartChar: uni1E9E
Encoding: 7838 7838 338
GlifName: uni1E_9E_
Width: 3649
VWidth: 4730
Flags: HMW
LayerCount: 2
Fore
SplineSet
61 37 m 1
 1454 37 l 1
 1454 0 l 1
 61 0 l 1
 61 37 l 1
2507 1614 m 1
 2417 1630 1966 1700 1876 1700 c 1
 2863 2929 l 1
 2732 2995 2478 3072 2163 3072 c 0
 1368 3072 1085 2531 1085 1765 c 2
 1085 0 l 1
 430 0 l 1
 430 1806 l 2
 430 2678 1188 3113 2163 3113 c 0
 2790 3113 3220 2843 3363 2687 c 1
 2507 1614 l 1
1487 528 m 1
 1528 278 1818 16 2236 16 c 0
 2670 16 2818 373 2818 819 c 0
 2818 1184 2671 1663 1876 1663 c 1
 1876 1700 l 1
 3129 1700 3486 1319 3486 827 c 0
 3486 274 2977 -41 2359 -41 c 0
 1716 -41 1413 323 1413 659 c 0
 1413 888 1564 1040 1769 1040 c 0
 1953 1040 2097 905 2097 696 c 0
 2097 503 1929 369 1749 369 c 0
 1618 369 1520 458 1487 528 c 1
EndSplineSet
EndChar

StartChar: uni203D
Encoding: 8253 8253 339
GlifName: uni203D_
Width: 2703
Flags: HMW
LayerCount: 2
Fore
SplineSet
1663 2126 m 0
 1618 1733 1339 1282 1339 995 c 1
 1298 995 l 1
 1298 1282 1102 1733 1057 2126 c 0
 1053 2155 1053 2179 1053 2204 c 0
 1053 2319 1127 2511 1360 2511 c 0
 1593 2511 1667 2319 1667 2204 c 0
 1667 2179 1667 2155 1663 2126 c 0
266 2277 m 0
 266 2654 672 3113 1397 3113 c 0
 2015 3113 2540 2806 2540 2253 c 0
 2540 1721 1917 1372 1380 1372 c 1
 1380 1401 l 1
 1716 1426 2003 1876 2003 2294 c 0
 2003 2679 1749 3043 1303 3043 c 0
 730 3043 393 2675 352 2417 c 1
 377 2483 467 2560 602 2560 c 0
 782 2560 897 2396 897 2253 c 0
 897 2028 725 1921 582 1921 c 0
 418 1921 266 2048 266 2277 c 0
EndSplineSet
Refer: 1 46 N 1 0 0 1 774 0 2
EndChar

StartChar: R.alt
Encoding: 65536 -1 340
GlifName: R_.alt
Width: 2977
Flags: HMW
LayerCount: 2
Fore
SplineSet
1507 1569 m 2
 811 1569 l 1
 811 1597 l 1
 1401 1597 l 2
 1794 1597 1999 1827 1999 2314 c 0
 1999 2801 1794 3035 1401 3035 c 2
 74 3035 l 1
 74 3072 l 1
 1507 3072 l 2
 2187 3072 2654 2846 2654 2314 c 0
 2654 1782 2228 1569 1507 1569 c 2
74 37 m 1
 1524 37 l 1
 1524 0 l 1
 74 0 l 1
 74 37 l 1
483 3072 m 1
 1114 3072 l 1
 1114 0 l 1
 483 0 l 1
 483 3072 l 1
2941 0 m 1
 2875 0 2637 0 2490 0 c 0
 1413 0 2392 1556 1384 1556 c 2
 811 1556 l 1
 811 1577 l 1
 1712 1577 l 2
 3096 1577 2269 37 2793 37 c 0
 2879 37 2884 37 2941 37 c 1
 2941 0 l 1
EndSplineSet
EndChar

StartChar: J.alt
Encoding: 65537 -1 341
GlifName: J_.alt
Width: 2592
Flags: HMW
LayerCount: 2
Fore
SplineSet
975 3072 m 1
 2531 3072 l 1
 2531 3035 l 1
 975 3035 l 1
 975 3072 l 1
1491 3072 m 1
 2122 3072 l 1
 2122 922 l 1
 1999 349 1655 -82 934 -82 c 0
 393 -82 74 307 74 676 c 0
 74 991 283 1167 508 1167 c 0
 713 1167 885 1033 885 795 c 0
 885 590 713 418 492 418 c 0
 316 418 184 504 131 610 c 1
 164 266 471 -41 893 -41 c 0
 1327 -41 1491 328 1491 901 c 2
 1491 3072 l 1
EndSplineSet
EndChar

StartChar: four.alt
Encoding: 65538 -1 342
GlifName: four.alt
Width: 2682
VWidth: 4730
Flags: HMW
LayerCount: 2
Fore
SplineSet
2417 37 m 1
 2417 0 l 1
 1085 0 l 1
 1085 37 l 1
 2417 37 l 1
2109 2040 m 1
 2109 -4 l 1
 1475 -4 l 1
 1475 1855 l 1
 1659 1855 1986 1958 2109 2040 c 1
131 807 m 1
 2478 807 l 1
 2478 770 l 1
 61 770 l 1
 634 1589 1270 2458 1352 3072 c 1
 2040 3072 l 1
 1962 2376 709 1602 131 807 c 1
EndSplineSet
EndChar

StartChar: fj.lig
Encoding: 65539 -1 343
GlifName: fj.lig
Width: 2502
VWidth: 4730
Flags: HMW
LayerCount: 2
Fore
SplineSet
49 37 m 1
 1352 37 l 1
 1352 0 l 1
 49 0 l 1
 49 37 l 1
2191 -49 m 2
 2191 -586 1876 -1065 1303 -1065 c 0
 930 -1065 676 -864 676 -590 c 0
 676 -381 828 -242 1012 -242 c 0
 1176 -242 1343 -340 1343 -545 c 0
 1343 -750 1192 -856 995 -856 c 0
 889 -856 811 -791 786 -717 c 1
 811 -877 1004 -1020 1262 -1020 c 0
 1692 -1020 1618 -438 1618 82 c 2
 1618 1847 l 1
 49 1847 l 1
 49 1884 l 1
 2191 1884 l 1
 2191 -49 l 2
2085 2802 m 1
 2036 2925 1876 3072 1532 3072 c 0
 1102 3072 975 2732 975 2212 c 2
 975 0 l 1
 418 0 l 1
 418 2097 l 2
 418 2695 815 3113 1532 3113 c 0
 1966 3113 2204 2880 2204 2626 c 0
 2204 2417 2068 2290 1884 2290 c 0
 1720 2290 1556 2388 1556 2593 c 0
 1556 2798 1704 2908 1876 2908 c 0
 1982 2908 2052 2851 2085 2802 c 1
EndSplineSet
LCarets2: 1 0
Ligature2: "'liga' Standard Ligatures lookup 0-1" f j
EndChar

StartChar: uni2116
Encoding: 8470 8470 344
GlifName: uni2116
Width: 4694
Flags: HW
LayerCount: 2
Fore
SplineSet
3543 2335 m 0
 3543 1868 3625 1593 3826 1593 c 0
 4027 1593 4108 1868 4108 2335 c 0
 4108 2802 4027 3076 3826 3076 c 0
 3625 3076 3543 2802 3543 2335 c 0
3072 2335 m 0
 3072 2847 3392 3113 3826 3113 c 0
 4260 3113 4579 2847 4579 2335 c 0
 4579 1823 4260 1556 3826 1556 c 0
 3392 1556 3072 1823 3072 2335 c 0
EndSplineSet
Refer: 85 45 N 1 0 0 1 3088 164 2
Refer: 25 78 N 1 0 0 1 0 0 2
EndChar

StartChar: Euro
Encoding: 8364 8364 345
Width: 2969
Flags: HW
LayerCount: 2
Fore
SplineSet
2666 2683 m 1
 2584 2847 2331 3064 1962 3064 c 0
 1372 3064 1188 2331 1188 1536 c 0
 1188 659 1417 25 1884 25 c 0
 2285 25 2593 352 2695 729 c 1
 2736 729 l 1
 2630 332 2311 -41 1774 -41 c 0
 1053 -41 451 594 451 1536 c 0
 451 2396 995 3113 1880 3113 c 0
 2441 3113 2785 2756 2785 2482 c 0
 2785 2253 2633 2126 2449 2126 c 0
 2285 2126 2114 2233 2114 2458 c 0
 2114 2663 2269 2785 2449 2785 c 0
 2555 2785 2637 2724 2666 2683 c 1
EndSplineSet
Refer: 88 61 N 1 0 0 1 -123 -287 2
EndChar
